<?xml version="1.0" encoding="iso-8859-1"?>
<!-- Generator: Adobe Illustrator 19.0.0, SVG Export Plug-In . SVG Version: 6.00 Build 0)  -->
<svg version="1.1" id="Capa_1" xmlns="http://www.w3.org/2000/svg" xmlns:xlink="http://www.w3.org/1999/xlink" x="0px" y="0px"
	 viewBox="0 0 512 512" style="enable-background:new 0 0 512 512;" xml:space="preserve">
<g>
	<g>
		<path d="M256,199.145c-31.35,0-56.855,25.504-56.855,56.855S224.65,312.855,256,312.855S312.855,287.35,312.855,256
			S287.35,199.145,256,199.145z M256,275.775c-10.901,0-19.776-8.874-19.776-19.776s8.874-19.776,19.776-19.776
			s19.776,8.874,19.776,19.776S266.907,275.775,256,275.775z"/>
	</g>
</g>
<g>
	<g>
		<g>
			<path d="M94.218,91.486c-7.237-7.243-18.978-7.243-26.215,0C24.151,135.339,0,193.763,0,256s24.151,120.661,68.003,164.514
				c3.615,3.621,8.361,5.432,13.107,5.432c4.746,0,9.492-1.811,13.107-5.432c7.243-7.237,7.243-18.978,0-26.215
				c-76.253-76.259-76.253-200.338,0-276.597C101.461,110.465,101.461,98.723,94.218,91.486z"/>
			<path d="M171.46,152.043c-7.237-7.243-18.978-7.243-26.215,0c-57.318,57.318-57.318,150.59,0,207.909
				c3.621,3.621,8.367,5.432,13.114,5.432c4.746,0,9.492-1.811,13.101-5.438c7.237-7.237,7.237-18.972,0-26.215
				c-42.863-42.863-42.863-112.609,0-155.473C178.703,171.021,178.703,159.279,171.46,152.043z"/>
			<path d="M443.997,91.486c-7.243-7.243-18.972-7.243-26.215,0c-7.243,7.237-7.243,18.978,0,26.215
				c76.259,76.259,76.259,200.338,0,276.597c-7.243,7.237-7.243,18.978,0,26.215c3.621,3.621,8.361,5.432,13.107,5.432
				c4.74,0,9.486-1.811,13.107-5.432C487.843,376.661,512,318.237,512,256S487.849,135.339,443.997,91.486z"/>
			<path d="M340.534,152.043c-7.243,7.243-7.243,18.978,0,26.221c20.702,20.709,32.11,48.314,32.11,77.736
				s-11.402,57.021-32.11,77.736c-7.243,7.237-7.243,18.978,0,26.215c3.621,3.621,8.361,5.432,13.107,5.432
				c4.74,0,9.486-1.811,13.107-5.432c27.71-27.71,42.975-64.629,42.975-103.951s-15.264-76.247-42.975-103.957
				C359.506,144.806,347.777,144.8,340.534,152.043z"/>
		</g>
	</g>
</g>
<g>
</g>
<g>
</g>
<g>
</g>
<g>
</g>
<g>
</g>
<g>
</g>
<g>
</g>
<g>
</g>
<g>
</g>
<g>
</g>
<g>
</g>
<g>
</g>
<g>
</g>
<g>
</g>
<g>
</g>
</svg>
