<?xml version="1.0" encoding="iso-8859-1"?>
<!-- Generator: Adobe Illustrator 19.0.0, SVG Export Plug-In . SVG Version: 6.00 Build 0)  -->
<svg version="1.1" id="Capa_1" xmlns="http://www.w3.org/2000/svg" xmlns:xlink="http://www.w3.org/1999/xlink" x="0px" y="0px"
	 viewBox="0 0 512 512" style="enable-background:new 0 0 512 512;" xml:space="preserve">
<g>
	<g>
		<path d="M256,0C141.362,0,48.097,93.265,48.097,207.903S141.362,415.806,256,415.806s207.903-93.265,207.903-207.903
			S370.638,0,256,0z M256,378.57c-94.109,0-170.667-76.564-170.667-170.667c0-94.109,76.558-170.667,170.667-170.667
			c94.102,0,170.667,76.558,170.667,170.667C426.667,302.006,350.103,378.57,256,378.57z"/>
	</g>
</g>
<g>
	<g>
		<path d="M256,89.367c-65.362,0-118.536,53.174-118.536,118.536c0,65.362,53.174,118.536,118.536,118.536
			c65.356,0,118.536-53.18,118.536-118.536C374.536,142.541,321.356,89.367,256,89.367z M256,289.202
			c-44.833,0-81.299-36.473-81.299-81.299c0-44.833,36.467-81.299,81.299-81.299s81.299,36.467,81.299,81.299
			S300.833,289.202,256,289.202z"/>
	</g>
</g>
<g>
	<g>
		<path d="M423.402,483.8l-68.893-114.812l-31.93,19.164l51.97,86.612h-237.09l51.97-86.606l-31.93-19.164L88.61,483.806
			c-3.457,5.747-3.544,12.915-0.242,18.755c3.308,5.834,9.495,9.439,16.204,9.439h302.856c6.709,0,12.902-3.606,16.21-9.446
			C426.946,496.714,426.859,489.553,423.402,483.8z"/>
	</g>
</g>
<g>
</g>
<g>
</g>
<g>
</g>
<g>
</g>
<g>
</g>
<g>
</g>
<g>
</g>
<g>
</g>
<g>
</g>
<g>
</g>
<g>
</g>
<g>
</g>
<g>
</g>
<g>
</g>
<g>
</g>
</svg>
