<?xml version="1.0" encoding="iso-8859-1"?>
<!-- Generator: Adobe Illustrator 19.0.0, SVG Export Plug-In . SVG Version: 6.00 Build 0)  -->
<svg version="1.1" id="Capa_1" xmlns="http://www.w3.org/2000/svg" xmlns:xlink="http://www.w3.org/1999/xlink" x="0px" y="0px"
	 viewBox="0 0 512 512" style="enable-background:new 0 0 512 512;" xml:space="preserve">
<g>
	<g>
		<path d="M482.909,110.545h-320c-16.041,0-29.091,13.05-29.091,29.091v232.727c0,16.041,13.05,29.091,29.091,29.091h320
			c16.041,0,29.091-13.05,29.091-29.091V139.636C512,123.596,498.95,110.545,482.909,110.545z M477.091,366.545H168.727V145.455
			h308.364V366.545z"/>
	</g>
</g>
<g>
	<g>
		<path d="M143.412,296.268L34.909,350.993V160.57l108.724,52.945l15.284-31.389L25.1,116.963
			c-5.411-2.63-11.799-2.298-16.896,0.896C3.101,121.041,0,126.639,0,132.655v246.691c0,6.063,3.142,11.689,8.303,14.865
			c2.799,1.722,5.969,2.589,9.152,2.589c2.688,0,5.382-0.617,7.86-1.868l133.818-67.497L143.412,296.268z"/>
	</g>
</g>
<g>
</g>
<g>
</g>
<g>
</g>
<g>
</g>
<g>
</g>
<g>
</g>
<g>
</g>
<g>
</g>
<g>
</g>
<g>
</g>
<g>
</g>
<g>
</g>
<g>
</g>
<g>
</g>
<g>
</g>
</svg>
