<?xml version="1.0" encoding="iso-8859-1"?>
<!-- Generator: Adobe Illustrator 19.0.0, SVG Export Plug-In . SVG Version: 6.00 Build 0)  -->
<svg version="1.1" id="Capa_1" xmlns="http://www.w3.org/2000/svg" xmlns:xlink="http://www.w3.org/1999/xlink" x="0px" y="0px"
	 viewBox="0 0 512 512" style="enable-background:new 0 0 512 512;" xml:space="preserve">
<g>
	<g>
		<path d="M316.919,354.916c-7.365-7.328-19.285-7.302-26.613,0.075L173.649,472.269c-2.698,2.685-6.449,2.685-9.109,0.031
			L39.664,346.798c-1.669-1.662-2.02-3.4-2.02-4.573c0-1.161,0.351-2.905,1.982-4.536L156.942,221
			c7.371-7.334,7.397-19.247,0.069-26.619c-7.334-7.371-19.247-7.397-26.619-0.069L13.045,311.032
			c-8.413,8.413-13.043,19.492-13.043,31.192s4.63,22.779,13.011,31.161l124.876,125.509c8.739,8.739,19.95,13.106,31.173,13.106
			c11.23,0,22.472-4.385,31.236-13.156l116.695-117.316C324.328,374.163,324.29,362.243,316.919,354.916z"/>
	</g>
</g>
<g>
	<g>
		<path d="M498.884,137.881L374.046,13.043C365.633,4.63,354.554,0,342.854,0s-22.773,4.636-31.224,13.074L194.941,130.39
			c-7.334,7.371-7.302,19.291,0.069,26.619c7.378,7.328,19.291,7.302,26.619-0.069L338.28,39.662c1.663-1.669,3.4-2.02,4.573-2.02
			c1.167,0,2.905,0.351,4.573,2.02L472.265,164.5c2.698,2.698,2.698,6.456,0.044,9.109L354.993,290.304
			c-7.371,7.328-7.409,19.247-0.075,26.613c3.676,3.701,8.507,5.552,13.344,5.552c4.799,0,9.599-1.826,13.269-5.477l117.354-116.739
			C516.369,182.768,516.369,155.378,498.884,137.881z"/>
	</g>
</g>
<g>
	<g>
		<path d="M351.455,160.478c-7.353-7.353-19.26-7.353-26.613,0L160.474,324.846c-7.353,7.346-7.353,19.266,0,26.613
			c3.67,3.676,8.488,5.514,13.306,5.514s9.636-1.838,13.306-5.514l164.368-164.368C358.808,179.745,358.808,167.825,351.455,160.478
			z"/>
	</g>
</g>
<g>
</g>
<g>
</g>
<g>
</g>
<g>
</g>
<g>
</g>
<g>
</g>
<g>
</g>
<g>
</g>
<g>
</g>
<g>
</g>
<g>
</g>
<g>
</g>
<g>
</g>
<g>
</g>
<g>
</g>
</svg>
