<?xml version="1.0" encoding="iso-8859-1"?>
<!-- Generator: Adobe Illustrator 19.0.0, SVG Export Plug-In . SVG Version: 6.00 Build 0)  -->
<svg version="1.1" id="Capa_1" xmlns="http://www.w3.org/2000/svg" xmlns:xlink="http://www.w3.org/1999/xlink" x="0px" y="0px"
	 viewBox="0 0 512.01 512.01" style="enable-background:new 0 0 512.01 512.01;" xml:space="preserve">
<g>
	<g>
		<path d="M506.426,273.018L254.873,21.465c-2.96-2.96-6.803-4.866-10.951-5.419L125.132,0.165
			c-5.901-0.769-11.803,1.22-16.002,5.419L5.587,109.127c-4.205,4.199-6.206,10.119-5.419,16.002l15.881,118.789
			c0.559,4.148,2.458,7.998,5.419,10.951l251.553,251.553c3.722,3.722,8.595,5.584,13.473,5.584c4.872,0,9.751-1.861,13.48-5.59
			l206.452-206.452C513.871,292.526,513.871,280.457,506.426,273.018z M286.495,466.003L52.976,232.484L39.197,129.423
			l90.223-90.216l103.054,13.778L466,286.498L286.495,466.003z"/>
	</g>
</g>
<g>
	<g>
		<path d="M203.412,104.693c-7.439-7.445-19.508-7.445-26.947,0l-67.335,67.335c-7.445,7.439-7.445,19.508,0,26.947
			c3.716,3.722,8.595,5.584,13.473,5.584c4.872,0,9.751-1.861,13.473-5.584l67.335-67.335
			C210.857,124.201,210.857,112.132,203.412,104.693z"/>
	</g>
</g>
<g>
</g>
<g>
</g>
<g>
</g>
<g>
</g>
<g>
</g>
<g>
</g>
<g>
</g>
<g>
</g>
<g>
</g>
<g>
</g>
<g>
</g>
<g>
</g>
<g>
</g>
<g>
</g>
<g>
</g>
</svg>
