<?xml version="1.0" encoding="iso-8859-1"?>
<!-- Generator: Adobe Illustrator 19.0.0, SVG Export Plug-In . SVG Version: 6.00 Build 0)  -->
<svg version="1.1" id="Capa_1" xmlns="http://www.w3.org/2000/svg" xmlns:xlink="http://www.w3.org/1999/xlink" x="0px" y="0px"
	 viewBox="0 0 512.005 512.005" style="enable-background:new 0 0 512.005 512.005;" xml:space="preserve">
<g>
	<g>
		<path d="M492.703,114.498H349.266c-5.641,0-10.999,2.464-14.665,6.754L131.332,358.92H19.297C8.638,358.92,0,367.558,0,378.217
			s8.638,19.296,19.297,19.296h120.925c5.641,0,10.999-2.47,14.665-6.754l203.269-237.668h134.548
			c10.658,0,19.297-8.638,19.297-19.297S503.362,114.498,492.703,114.498z"/>
	</g>
</g>
<g>
	<g>
		<path d="M506.693,120.499l-61.106-64.322c-7.346-7.731-19.567-8.04-27.279-0.695c-7.725,7.339-8.04,19.554-0.695,27.279
			l48.479,51.033l-48.479,51.033c-7.346,7.725-7.03,19.94,0.695,27.279c3.737,3.551,8.516,5.307,13.289,5.307
			c5.101,0,10.195-2.013,13.99-6.008l61.106-64.322C513.775,139.635,513.775,127.948,506.693,120.499z"/>
	</g>
</g>
<g>
	<g>
		<path d="M492.697,358.914H358.265l-67.538-80.569c-6.831-8.162-19.007-9.25-27.182-2.393c-8.162,6.85-9.237,19.013-2.393,27.182
			l73.327,87.477c3.666,4.374,9.076,6.902,14.788,6.902h143.437c10.658,0,19.29-8.645,19.29-19.303S503.355,358.914,492.697,358.914
			z"/>
	</g>
</g>
<g>
	<g>
		<path d="M227.75,208.941l-72.683-87.477c-3.673-4.412-9.108-6.966-14.845-6.966H19.297C8.638,114.498,0,123.136,0,133.794
			s8.638,19.297,19.297,19.297h111.868l66.901,80.511c3.821,4.593,9.314,6.966,14.852,6.966c4.342,0,8.716-1.46,12.318-4.451
			C233.436,229.306,234.562,217.136,227.75,208.941z"/>
	</g>
</g>
<g>
	<g>
		<path d="M506.693,364.921L445.588,300.6c-7.346-7.738-19.567-8.04-27.279-0.695c-7.725,7.333-8.04,19.554-0.695,27.279
			l48.479,51.033l-48.479,51.033c-7.346,7.725-7.03,19.94,0.695,27.279c3.737,3.551,8.516,5.307,13.289,5.307
			c5.101,0,10.195-2.007,13.99-6.008l61.106-64.322C513.775,384.057,513.775,372.37,506.693,364.921z"/>
	</g>
</g>
<g>
</g>
<g>
</g>
<g>
</g>
<g>
</g>
<g>
</g>
<g>
</g>
<g>
</g>
<g>
</g>
<g>
</g>
<g>
</g>
<g>
</g>
<g>
</g>
<g>
</g>
<g>
</g>
<g>
</g>
</svg>
