<?xml version="1.0" encoding="iso-8859-1"?>
<!-- Generator: Adobe Illustrator 19.0.0, SVG Export Plug-In . SVG Version: 6.00 Build 0)  -->
<svg version="1.1" id="Capa_1" xmlns="http://www.w3.org/2000/svg" xmlns:xlink="http://www.w3.org/1999/xlink" x="0px" y="0px"
	 viewBox="0 0 512 512" style="enable-background:new 0 0 512 512;" xml:space="preserve">
<g>
	<g>
		<path d="M443.445,98.72L262.336,2.213c-5.602-2.989-12.314-2.945-17.879,0.107L68.361,98.827
			c-6.022,3.303-9.764,9.619-9.764,16.488V251.93c0,107.337,63.702,204.616,162.315,247.85l24.44,10.654
			c2.394,1.047,4.957,1.567,7.514,1.567c2.538,0,5.076-0.514,7.451-1.542l27.517-11.882
			c100.581-42.564,165.568-140.357,165.568-249.16V115.309C453.403,108.365,449.574,101.986,443.445,98.72z M415.802,249.417
			c0,93.694-56,177.907-142.681,214.555c-0.044,0.019-0.088,0.038-0.132,0.056l-20.085,8.673l-16.927-7.382
			c-84.914-37.224-139.78-120.986-139.78-213.395V126.445l157.427-86.268l162.177,86.419V249.417z"/>
	</g>
</g>
<g>
	<g>
		<path d="M353.31,205.6c-6.549-8.053-18.399-9.275-26.452-2.72l-96.684,78.654l-35.708-41.812
			c-6.737-7.896-18.612-8.83-26.502-2.087c-7.896,6.737-8.83,18.606-2.087,26.502l47.627,55.768
			c3.716,4.355,8.993,6.593,14.307,6.593c4.174,0,8.372-1.379,11.85-4.218l110.928-90.235
			C358.65,225.497,359.865,213.653,353.31,205.6z"/>
	</g>
</g>
<g>
</g>
<g>
</g>
<g>
</g>
<g>
</g>
<g>
</g>
<g>
</g>
<g>
</g>
<g>
</g>
<g>
</g>
<g>
</g>
<g>
</g>
<g>
</g>
<g>
</g>
<g>
</g>
<g>
</g>
</svg>
