<?xml version="1.0" encoding="iso-8859-1"?>
<!-- Generator: Adobe Illustrator 19.0.0, SVG Export Plug-In . SVG Version: 6.00 Build 0)  -->
<svg version="1.1" id="Capa_1" xmlns="http://www.w3.org/2000/svg" xmlns:xlink="http://www.w3.org/1999/xlink" x="0px" y="0px"
	 viewBox="0 0 512.005 512.005" style="enable-background:new 0 0 512.005 512.005;" xml:space="preserve">
<g>
	<g>
		<path d="M210.517,397.077l-90.348-168.336c-2.813-5.238-8.277-8.503-14.22-8.503c-0.005,0-0.016,0-0.021,0
			c-5.948,0.011-11.412,3.291-14.214,8.541L1.898,397.115C0.651,399.449,0,402.063,0,404.709
			c0,58.713,47.769,106.487,106.487,106.487c58.423,0,105.95-47.774,105.95-106.487
			C212.437,402.046,211.776,399.427,210.517,397.077z M106.487,478.927c-39.632,0-72.11-31.226-74.116-70.373l73.622-137.987
			l74.079,138.009C178.065,447.707,145.823,478.927,106.487,478.927z"/>
	</g>
</g>
<g>
	<g>
		<path d="M510.102,397.109l-89.815-168.336c-2.802-5.249-8.266-8.535-14.214-8.541c-0.011,0-0.016,0-0.022,0
			c-5.943,0-11.412,3.265-14.22,8.503l-90.353,168.336c-1.258,2.35-1.915,4.969-1.915,7.632
			c0,58.719,47.769,106.493,106.487,106.493c58.417,0,105.95-47.774,105.955-106.493
			C512.005,402.057,511.349,399.449,510.102,397.109z M406.05,478.927c-39.626,0-72.094-31.215-74.116-70.352l74.073-138.009
			l73.627,137.987C477.639,447.696,445.397,478.927,406.05,478.927z"/>
	</g>
</g>
<g>
	<g>
		<path d="M406.05,220.238H105.95c-8.912,0-16.134,7.223-16.134,16.134v168.336h32.269V252.507h267.832v152.202h32.269V236.372
			C422.185,227.461,414.962,220.238,406.05,220.238z"/>
	</g>
</g>
<g>
	<g>
		<rect x="16.134" y="388.574" width="180.168" height="32.269"/>
	</g>
</g>
<g>
	<g>
		<rect x="315.698" y="388.574" width="180.168" height="32.269"/>
	</g>
</g>
<g>
	<g>
		<path d="M256,0.809c-53.378,0-96.807,43.429-96.807,96.807c0,53.378,43.429,96.807,96.807,96.807s96.807-43.429,96.807-96.807
			C352.807,44.238,309.378,0.809,256,0.809z M256,162.154c-35.587,0-64.538-28.951-64.538-64.538S220.413,33.078,256,33.078
			s64.538,28.951,64.538,64.538S291.587,162.154,256,162.154z"/>
	</g>
</g>
<g>
	<g>
		<path d="M270.892,120.452l-21.513-51.63c-3.426-8.223-12.865-12.117-21.099-8.686c-8.223,3.426-12.112,12.875-8.686,21.099
			l21.513,51.63c2.582,6.196,8.584,9.933,14.903,9.933c2.065,0,4.168-0.403,6.196-1.248
			C270.43,138.124,274.323,128.675,270.892,120.452z"/>
	</g>
</g>
<g>
	<g>
		<rect x="239.866" y="178.288" width="32.269" height="58.084"/>
	</g>
</g>
<g>
	<g>
		<rect x="186.084" y="110.524" width="138.756" height="32.269"/>
	</g>
</g>
<g>
</g>
<g>
</g>
<g>
</g>
<g>
</g>
<g>
</g>
<g>
</g>
<g>
</g>
<g>
</g>
<g>
</g>
<g>
</g>
<g>
</g>
<g>
</g>
<g>
</g>
<g>
</g>
<g>
</g>
</svg>
