<?xml version="1.0" encoding="iso-8859-1"?>
<!-- Generator: Adobe Illustrator 19.0.0, SVG Export Plug-In . SVG Version: 6.00 Build 0)  -->
<svg version="1.1" id="Capa_1" xmlns="http://www.w3.org/2000/svg" xmlns:xlink="http://www.w3.org/1999/xlink" x="0px" y="0px"
	 viewBox="0 0 512 512" style="enable-background:new 0 0 512 512;" xml:space="preserve">
<g>
	<g>
		<path d="M505.826,118.659L373.659,4.352C370.408,1.542,366.265,0,361.972,0H17.86C7.996,0,0,7.996,0,17.86V494.14
			C0,504.004,7.996,512,17.86,512H494.14c9.865,0,17.86-7.996,17.86-17.86V132.167C512,126.982,509.744,122.052,505.826,118.659z
			 M476.279,476.279H35.721V35.721h319.601l120.957,104.615V476.279z"/>
	</g>
</g>
<g>
	<g>
		<path d="M297.674,17.86v122.047H154.791V17.86H119.07v139.907c0,9.865,7.996,17.86,17.86,17.86h178.605
			c9.865,0,17.86-7.996,17.86-17.86V17.86H297.674z"/>
	</g>
</g>
<g>
	<g>
		<path d="M345.302,294.698h-238.14c-9.865,0-17.86,7.995-17.86,17.86V494.14h35.721V330.419h202.419V494.14h35.721V312.558
			C363.163,302.693,355.167,294.698,345.302,294.698z"/>
	</g>
</g>
<g>
</g>
<g>
</g>
<g>
</g>
<g>
</g>
<g>
</g>
<g>
</g>
<g>
</g>
<g>
</g>
<g>
</g>
<g>
</g>
<g>
</g>
<g>
</g>
<g>
</g>
<g>
</g>
<g>
</g>
</svg>
