<?xml version="1.0" encoding="iso-8859-1"?>
<!-- Generator: Adobe Illustrator 19.0.0, SVG Export Plug-In . SVG Version: 6.00 Build 0)  -->
<svg version="1.1" id="Capa_1" xmlns="http://www.w3.org/2000/svg" xmlns:xlink="http://www.w3.org/1999/xlink" x="0px" y="0px"
	 viewBox="0 0 512 512" style="enable-background:new 0 0 512 512;" xml:space="preserve">
<g>
	<g>
		<path d="M370.978,19.057v113.377L256,223.438l-114.978-91.004V19.057h-38.114v122.601c0,5.825,2.668,11.326,7.229,14.947
			l134.035,106.084c3.468,2.738,7.648,4.11,11.828,4.11s8.36-1.372,11.815-4.11l134.041-106.084
			c4.574-3.621,7.235-9.122,7.235-14.947V19.057H370.978z"/>
	</g>
</g>
<g>
	<g>
		<path d="M401.863,349.043L267.822,242.959c-6.924-5.482-16.719-5.482-23.65,0L110.137,349.043
			c-4.567,3.621-7.229,9.122-7.229,14.947v128.953h38.114V373.207L256,282.21l114.978,90.997v119.736h38.114h0.006V363.99
			C409.098,358.165,406.437,352.657,401.863,349.043z"/>
	</g>
</g>
<g>
	<g>
		<path d="M448.476,0H63.524C52.998,0,44.466,8.531,44.466,19.057s8.531,19.057,19.057,19.057h384.953
			c10.526,0,19.057-8.531,19.057-19.057S459.002,0,448.476,0z"/>
	</g>
</g>
<g>
	<g>
		<path d="M448.476,473.886H63.524c-10.526,0-19.057,8.531-19.057,19.057c0,10.526,8.531,19.057,19.057,19.057h384.953
			c10.526,0,19.057-8.531,19.057-19.057C467.534,482.417,459.002,473.886,448.476,473.886z"/>
	</g>
</g>
<g>
</g>
<g>
</g>
<g>
</g>
<g>
</g>
<g>
</g>
<g>
</g>
<g>
</g>
<g>
</g>
<g>
</g>
<g>
</g>
<g>
</g>
<g>
</g>
<g>
</g>
<g>
</g>
<g>
</g>
</svg>
