<?xml version="1.0" encoding="iso-8859-1"?>
<!-- Generator: Adobe Illustrator 19.0.0, SVG Export Plug-In . SVG Version: 6.00 Build 0)  -->
<svg version="1.1" id="Capa_1" xmlns="http://www.w3.org/2000/svg" xmlns:xlink="http://www.w3.org/1999/xlink" x="0px" y="0px"
	 viewBox="0 0 512 512" style="enable-background:new 0 0 512 512;" xml:space="preserve">
<g>
	<g>
		<path d="M345.869,0H166.131c-9.395,0-17.01,7.615-17.01,17.01v477.98c0,9.395,7.615,17.01,17.01,17.01h179.739
			c9.395,0,17.01-7.615,17.01-17.01V17.01C362.879,7.615,355.264,0,345.869,0z M328.859,477.98H183.141V34.02h145.719V477.98z"/>
	</g>
</g>
<g>
	<g>
		<path d="M235.872,182.574h-69.741c-9.395,0-17.01,7.615-17.01,17.01c0,9.395,7.615,17.01,17.01,17.01h69.741
			c9.39,0,17.01-7.615,17.01-17.01C252.882,190.188,245.267,182.574,235.872,182.574z"/>
	</g>
</g>
<g>
	<g>
		<path d="M213.192,69.174h-47.061c-9.395,0-17.01,7.615-17.01,17.01c0,9.395,7.615,17.01,17.01,17.01h47.061
			c9.389,0,17.01-7.615,17.01-17.01C230.202,76.789,222.587,69.174,213.192,69.174z"/>
	</g>
</g>
<g>
	<g>
		<path d="M213.192,295.973h-47.061c-9.395,0-17.01,7.615-17.01,17.01c0,9.395,7.615,17.01,17.01,17.01h47.061
			c9.389,0,17.01-7.615,17.01-17.01C230.202,303.588,222.587,295.973,213.192,295.973z"/>
	</g>
</g>
<g>
	<g>
		<path d="M235.872,409.373h-69.741c-9.395,0-17.01,7.615-17.01,17.01s7.615,17.01,17.01,17.01h69.741
			c9.39,0,17.01-7.615,17.01-17.01S245.267,409.373,235.872,409.373z"/>
	</g>
</g>
<g>
</g>
<g>
</g>
<g>
</g>
<g>
</g>
<g>
</g>
<g>
</g>
<g>
</g>
<g>
</g>
<g>
</g>
<g>
</g>
<g>
</g>
<g>
</g>
<g>
</g>
<g>
</g>
<g>
</g>
</svg>
