<?xml version="1.0" encoding="iso-8859-1"?>
<!-- Generator: Adobe Illustrator 19.0.0, SVG Export Plug-In . SVG Version: 6.00 Build 0)  -->
<svg version="1.1" id="Capa_1" xmlns="http://www.w3.org/2000/svg" xmlns:xlink="http://www.w3.org/1999/xlink" x="0px" y="0px"
	 viewBox="0 0 512 512" style="enable-background:new 0 0 512 512;" xml:space="preserve">
<g>
	<g>
		<path d="M256,0C114.842,0,0,114.842,0,256s114.842,256,256,256s256-114.842,256-256S397.158,0,256,0z M256,473.6
			c-119.987,0-217.6-97.613-217.6-217.6S136.013,38.4,256,38.4S473.6,136.013,473.6,256S375.987,473.6,256,473.6z"/>
	</g>
</g>
<g>
	<g>
		<rect x="318.214" y="111.683" transform="matrix(0.7072 -0.707 0.707 0.7072 19.0543 307.7754)" width="125.81" height="38.4"/>
	</g>
</g>
<g>
	<g>
		<rect x="61.4" y="192.732" transform="matrix(0.0882 -0.9961 0.9961 0.0882 -179.9291 312.2589)" width="38.4" height="123.36"/>
	</g>
</g>
<g>
	<g>
		<rect x="224" y="19.2" width="38.4" height="123.52"/>
	</g>
</g>
<g>
	<g>
		<path d="M256,122.88c-73.402,0-133.12,59.718-133.12,133.12S182.598,389.12,256,389.12S389.12,329.402,389.12,256
			S329.402,122.88,256,122.88z M256,350.72c-52.23,0-94.72-42.496-94.72-94.72c0-52.23,42.49-94.72,94.72-94.72
			c52.224,0,94.72,42.49,94.72,94.72C350.72,308.224,308.224,350.72,256,350.72z"/>
	</g>
</g>
<g>
</g>
<g>
</g>
<g>
</g>
<g>
</g>
<g>
</g>
<g>
</g>
<g>
</g>
<g>
</g>
<g>
</g>
<g>
</g>
<g>
</g>
<g>
</g>
<g>
</g>
<g>
</g>
<g>
</g>
</svg>
