<?xml version="1.0" encoding="iso-8859-1"?>
<!-- Generator: Adobe Illustrator 19.0.0, SVG Export Plug-In . SVG Version: 6.00 Build 0)  -->
<svg version="1.1" id="Capa_1" xmlns="http://www.w3.org/2000/svg" xmlns:xlink="http://www.w3.org/1999/xlink" x="0px" y="0px"
	 viewBox="0 0 512 512" style="enable-background:new 0 0 512 512;" xml:space="preserve">
<g>
	<g>
		<path d="M491.574,33.362H346.553c-31.163,0-60.95,9.566-86.026,27.588l-4.534,3.214l-4.419-3.132
			c-25.185-18.104-54.965-27.67-86.128-27.67H20.426C9.144,33.362,0,42.506,0,53.787v369.021c0,11.282,9.144,20.426,20.426,20.426
			h145.021c22.557,0,44.092,6.911,62.407,20.071l16.34,11.574c3.534,2.506,7.673,3.758,11.806,3.758
			c4.14,0,8.272-1.253,11.813-3.751l16.456-11.663c18.185-13.072,39.728-19.99,62.284-19.99h145.021
			c11.282,0,20.426-9.144,20.426-20.426V53.787C512,42.506,502.856,33.362,491.574,33.362z M471.149,402.383H346.553
			c-31.163,0-60.95,9.566-86.026,27.581l-4.534,3.214l-4.419-3.132c-25.185-18.097-54.965-27.663-86.128-27.663H40.851V74.213
			h124.596c22.557,0,44.092,6.911,62.407,20.071l16.34,11.574c7.074,5.011,16.545,5.004,23.619,0l16.456-11.656
			c18.185-13.079,39.728-19.99,62.284-19.99h124.596V402.383z"/>
	</g>
</g>
<g>
	<g>
		<rect x="235.574" y="89.191" width="40.851" height="369.021"/>
	</g>
</g>
<g>
</g>
<g>
</g>
<g>
</g>
<g>
</g>
<g>
</g>
<g>
</g>
<g>
</g>
<g>
</g>
<g>
</g>
<g>
</g>
<g>
</g>
<g>
</g>
<g>
</g>
<g>
</g>
<g>
</g>
</svg>
