<?xml version="1.0" encoding="iso-8859-1"?>
<!-- Generator: Adobe Illustrator 19.0.0, SVG Export Plug-In . SVG Version: 6.00 Build 0)  -->
<svg version="1.1" id="Capa_1" xmlns="http://www.w3.org/2000/svg" xmlns:xlink="http://www.w3.org/1999/xlink" x="0px" y="0px"
	 viewBox="0 0 512.005 512.005" style="enable-background:new 0 0 512.005 512.005;" xml:space="preserve">
<g>
	<g>
		<path d="M494.013,184.628c-0.478-0.098-0.962-0.168-1.445-0.223l-37.543-4.074c-10.468-18.975-24.989-36.239-43.296-51.477
			l1.842-16.58c2.412-21.132,2.944-27.683,2.173-32.98c-1.45-13.125-12.369-22.648-25.586-22.648c-0.005,0-0.005,0-0.011,0
			c-24.777-0.57-68.019,19.171-82.637,26.217c-8.333-1.097-27.08-3.406-36.712-3.406c-76.748,0-146.619,36.739-182.348,95.876
			c-0.141,0.234-0.272,0.467-0.402,0.701l-7.605,14.124c-0.109,0.212-0.223,0.424-0.326,0.641
			c-9.045,18.731-14.005,36.891-15.167,55.502c-0.022,0.337-0.033,0.674-0.033,1.016v7.605c0,31.089,9.49,61.358,27.548,88.162
			c-15.575,28.134-12.044,63.157,9.849,86.874c14.325,15.694,34.43,24.712,57.127,25.413h2.173c20.507,0,40.639-7.975,55.041-21.681
			l8.235-7.578c25.119,4.688,50.814,5.34,75.135,1.923l4.759,4.493c30.829,28.764,77.732,30.394,108.919,3.944
			c24.076-19.758,32.953-51.836,23.245-80.73c6.693-8.279,12.793-17.335,18.03-26.754l37.597-4.08
			c0.483-0.054,0.956-0.12,1.429-0.217c10.43-2.075,18.003-11.087,18.003-21.414v-97.239
			C512.005,195.72,504.438,186.714,494.013,184.628z M479.417,293.541l-35.06,3.803c-4.34,0.342-8.317,2.314-11.832,5.862
			c-1.211,1.228-2.222,2.64-2.993,4.183c-6.133,12.25-14.102,23.957-23.044,33.838c-1.929,2.135-3.249,4.721-3.846,7.497
			c-1.217,4.607-0.581,9.246,1.722,13.141c7.757,16.949,3.069,37.581-11.544,49.576c-18.47,15.661-47.37,14.45-65.732-2.678
			l-9.675-9.137c-2.472-2.39-6.66-5.096-12.924-5.096c-0.945,0-1.896,0.087-2.83,0.25c-24.706,4.362-51.439,3.651-77.324-2.037
			c-1.152-0.255-2.325-0.38-3.504-0.38c-6.166,0-10.311,2.613-12.782,4.954l-13.668,12.57c-8.599,8.192-20.54,12.891-32.763,12.891
			l-1.668,0.005c-13.309-0.413-25.228-5.666-33.621-14.863c-13.863-15.015-14.673-37.233-2.026-54.182
			c2.613-3.151,4.036-7.029,4.036-11.088c0-4.091-1.44-7.991-4.091-11.147c-17.487-23.022-26.733-49.489-26.733-76.585v-7.078
			c0.945-14.053,4.808-27.982,11.81-42.563l7.23-13.429c29.932-49.233,88.993-79.801,154.252-79.801
			c8.246,0,29.471,2.667,36.266,3.64c0.766,0.109,1.537,0.163,2.309,0.163h1.086c2.749,0,5.508-0.722,7.915-2.048
			c7.768-4.275,44.611-20.724,64.781-24.006c-0.462,5.574-1.353,13.369-1.972,18.823l-2.716,24.446
			c-0.071,0.598-0.103,1.195-0.103,1.798c0,6.454,2.879,10.702,5.286,13.125c0.511,0.511,1.054,0.983,1.619,1.423
			c19.801,15.232,34.664,32.844,44.181,52.357c0.788,1.624,1.847,3.102,3.124,4.378c1.358,1.358,5.313,5.307,11.794,5.807
			l35.039,3.797V293.541z"/>
	</g>
</g>
<g>
	<g>
		<path d="M117.725,164.082c-6.361-6.367-16.683-6.367-23.044,0c-14.168,14.162-37.217,14.157-51.379,0
			c-6.905-6.905-10.707-16.031-10.707-25.69c0-9.659,3.803-18.785,10.713-25.69c6.361-6.367,6.361-16.688,0-23.049
			c-6.367-6.361-16.688-6.361-23.049,0C7.192,102.718,0,120.026,0,138.393s7.192,35.674,20.257,48.739
			c13.434,13.434,31.084,20.154,48.734,20.154c17.65,0,35.299-6.72,48.734-20.159C124.091,180.765,124.091,170.444,117.725,164.082z
			"/>
	</g>
</g>
<g>
	<g>
		<circle cx="350.116" cy="219.628" r="15.754"/>
	</g>
</g>
<g>
</g>
<g>
</g>
<g>
</g>
<g>
</g>
<g>
</g>
<g>
</g>
<g>
</g>
<g>
</g>
<g>
</g>
<g>
</g>
<g>
</g>
<g>
</g>
<g>
</g>
<g>
</g>
<g>
</g>
</svg>
