<?xml version="1.0" encoding="iso-8859-1"?>
<!-- Generator: Adobe Illustrator 19.0.0, SVG Export Plug-In . SVG Version: 6.00 Build 0)  -->
<svg version="1.1" id="Capa_1" xmlns="http://www.w3.org/2000/svg" xmlns:xlink="http://www.w3.org/1999/xlink" x="0px" y="0px"
	 viewBox="0 0 512 512" style="enable-background:new 0 0 512 512;" xml:space="preserve">
<g>
	<g>
		<path d="M505.791,213.483L299.003,6.688c-7.947-7.954-22.019-7.954-29.966,0l-59.939,59.939c-3.977,3.97-6.209,9.367-6.209,14.983
			c0,5.623,2.232,11.013,6.209,14.99l206.795,206.788c3.97,3.977,9.36,6.209,14.983,6.209s11.013-2.232,14.983-6.209l59.932-59.939
			C514.07,235.177,514.07,221.755,505.791,213.483z M430.876,258.439L254.047,81.617l29.973-29.973l176.822,176.822L430.876,258.439
			z"/>
	</g>
</g>
<g>
	<g>
		<path d="M496.042,51.955l-36.027-36.027c-19.681-19.695-50.537-19.695-70.231,0l-55.799,55.807L363.95,101.7l55.799-55.799
			c3.031-3.031,7.255-3.045,10.299-0.007l36.027,36.034c1.872,1.879,2.268,3.836,2.268,5.15s-0.388,3.271-2.268,5.15l-55.799,55.807
			L440.243,178l55.799-55.807c9.473-9.473,14.686-21.941,14.686-35.123S505.515,61.421,496.042,51.955z"/>
	</g>
</g>
<g>
	<g>
		<path d="M366.479,224.319L165.152,425.647c-9.289,9.282-33.71,29.358-59.762,15.379c-8.237-4.422-18.395-2.932-25.014,3.695
			l-21.192,21.192c-1.116,1.109-3.483,2.974-6.909,2.974c-5.637,0-9.89-4.246-9.89-9.89c0-3.419,1.865-5.8,2.981-6.902
			l21.185-21.178c6.506-6.506,8.081-16.466,3.885-24.654c-12.97-25.346,4.09-48.686,15.146-60.073l202.034-200.621l-29.867-30.079
			L55.446,316.386c-27.804,28.617-37.956,62.906-28.68,94.362l-11.373,11.373C5.461,432.047,0,445.143,0,459.003
			c0,28.829,23.453,52.274,52.274,52.274c13.867,0,26.971-5.475,36.875-15.407l11.239-11.232
			c31.499,9.558,66.537-0.841,94.73-29.026l201.327-201.327L366.479,224.319z"/>
	</g>
</g>
<g>
	<g>
		
			<rect x="150.814" y="381.409" transform="matrix(0.7071 -0.7071 0.7071 0.7071 -239.4485 241.6741)" width="42.377" height="56.936"/>
	</g>
</g>
<g>
	<g>
		
			<rect x="260.667" y="272.068" transform="matrix(0.707 -0.7072 0.7072 0.707 -129.6096 287.2407)" width="42.377" height="55.947"/>
	</g>
</g>
<g>
	<g>
		
			<rect x="205.572" y="327.216" transform="matrix(0.7071 -0.7071 0.7071 0.7071 -184.7392 264.3793)" width="42.384" height="55.947"/>
	</g>
</g>
<g>
</g>
<g>
</g>
<g>
</g>
<g>
</g>
<g>
</g>
<g>
</g>
<g>
</g>
<g>
</g>
<g>
</g>
<g>
</g>
<g>
</g>
<g>
</g>
<g>
</g>
<g>
</g>
<g>
</g>
</svg>
