<?xml version="1.0" encoding="iso-8859-1"?>
<!-- Generator: Adobe Illustrator 19.0.0, SVG Export Plug-In . SVG Version: 6.00 Build 0)  -->
<svg version="1.1" id="Capa_1" xmlns="http://www.w3.org/2000/svg" xmlns:xlink="http://www.w3.org/1999/xlink" x="0px" y="0px"
	 viewBox="0 0 512 512" style="enable-background:new 0 0 512 512;" xml:space="preserve">
<g>
	<g>
		<path d="M255.889,67.796c-26.614,0-48.271,21.657-48.271,48.271s21.651,48.271,48.271,48.271
			c26.614,0,48.265-21.657,48.265-48.271S282.503,67.796,255.889,67.796z M255.889,131.795c-8.672,0-15.729-7.056-15.729-15.729
			c0-8.672,7.056-15.729,15.729-15.729c8.667,0,15.723,7.056,15.723,15.729C271.613,124.739,264.562,131.795,255.889,131.795z"/>
	</g>
</g>
<g>
	<g>
		<path d="M178.32,115.584c0.076-17.665,7.018-34.175,19.547-46.492c6.411-6.302,6.498-16.602,0.195-23.013
			c-6.308-6.411-16.602-6.498-23.013-0.195c-18.76,18.451-29.152,43.156-29.266,69.559c-0.109,26.668,10.251,51.78,29.174,70.703
			c3.173,3.178,7.338,4.767,11.504,4.767c4.165,0,8.331-1.589,11.498-4.767c6.357-6.351,6.357-16.656,0-23.007
			C185.219,150.398,178.244,133.509,178.32,115.584z"/>
	</g>
</g>
<g>
	<g>
		<path d="M336.811,45.987c-6.357-6.357-16.651-6.357-23.007,0c-6.357,6.351-6.357,16.656,0,23.007
			c12.74,12.746,19.715,29.63,19.639,47.555c-0.076,17.659-7.013,34.175-19.547,46.492c-6.405,6.302-6.492,16.607-0.19,23.013
			c3.184,3.238,7.392,4.86,11.601,4.86c4.122,0,8.244-1.551,11.411-4.67c18.76-18.451,29.152-43.156,29.266-69.559
			C366.093,90.017,355.734,64.911,336.811,45.987z"/>
	</g>
</g>
<g>
	<g>
		<path d="M146.445,27.78c6.357-6.357,6.357-16.656,0-23.013c-6.351-6.351-16.656-6.357-23.013,0
			c-61.369,61.369-61.369,161.229,0,222.598c3.173,3.178,7.338,4.767,11.504,4.767c4.165,0,8.331-1.589,11.509-4.762
			c6.357-6.351,6.357-16.656,0-23.007C97.762,155.681,97.762,76.468,146.445,27.78z"/>
	</g>
</g>
<g>
	<g>
		<path d="M388.336,4.767c-6.357-6.357-16.651-6.357-23.007,0c-6.357,6.351-6.357,16.656,0,23.007
			c23.685,23.685,36.724,55.039,36.724,88.292c0,33.253-13.044,64.607-36.724,88.287c-6.357,6.357-6.357,16.661,0,23.013
			c3.178,3.178,7.338,4.767,11.504,4.767c4.165,0,8.331-1.589,11.504-4.767c29.83-29.83,46.258-69.352,46.258-111.299
			C434.594,74.125,418.166,34.598,388.336,4.767z"/>
	</g>
</g>
<g>
	<g>
		<path d="M387.755,483.195L210.944,336.756c-6.915-5.733-17.177-4.767-22.91,2.148c-5.733,6.926-4.767,17.182,2.153,22.915
			l176.806,146.439c3.037,2.511,6.714,3.737,10.37,3.737c4.681,0,9.323-2.007,12.539-5.885
			C395.636,499.184,394.67,488.928,387.755,483.195z"/>
	</g>
</g>
<g>
	<g>
		<path d="M323.745,338.904c-5.738-6.921-15.984-7.897-22.91-2.153L124.018,483.189c-6.921,5.733-7.886,15.994-2.153,22.91
			c3.216,3.889,7.859,5.896,12.54,5.896c3.656,0,7.333-1.22,10.375-3.742l176.812-146.439
			C328.512,356.08,329.478,345.819,323.745,338.904z"/>
	</g>
</g>
<g>
	<g>
		<path d="M392.186,489.014L270.702,220.537c-2.636-5.82-8.428-9.562-14.823-9.562c-6.389,0-12.187,3.742-14.823,9.562
			l-121.49,268.472c-3.699,8.19-0.065,17.828,8.119,21.537c2.18,0.987,4.453,1.454,6.698,1.454c6.194,0,12.116-3.558,14.839-9.562
			L255.889,266.72l106.646,235.707c3.71,8.184,13.358,11.829,21.532,8.119C392.257,506.837,395.891,497.199,392.186,489.014z"/>
	</g>
</g>
<g>
</g>
<g>
</g>
<g>
</g>
<g>
</g>
<g>
</g>
<g>
</g>
<g>
</g>
<g>
</g>
<g>
</g>
<g>
</g>
<g>
</g>
<g>
</g>
<g>
</g>
<g>
</g>
<g>
</g>
</svg>
