<?xml version="1.0" encoding="iso-8859-1"?>
<!-- Generator: Adobe Illustrator 19.0.0, SVG Export Plug-In . SVG Version: 6.00 Build 0)  -->
<svg version="1.1" id="Capa_1" xmlns="http://www.w3.org/2000/svg" xmlns:xlink="http://www.w3.org/1999/xlink" x="0px" y="0px"
	 viewBox="0 0 512 512" style="enable-background:new 0 0 512 512;" xml:space="preserve">
<g>
	<g>
		<path d="M125.572,316.358c-53.94,0-97.821,43.881-97.821,97.821S71.631,512,125.572,512s97.821-43.881,97.821-97.821
			S179.512,316.358,125.572,316.358z M125.572,470.381c-30.984,0-56.195-25.211-56.195-56.195c0-30.991,25.211-56.202,56.195-56.202
			c30.984,0,56.195,25.205,56.195,56.202C181.767,445.169,156.555,470.381,125.572,470.381z"/>
	</g>
</g>
<g>
	<g>
		<path d="M202.58,0c-11.496,0-20.813,9.317-20.813,20.813v393.366h41.626h0v-199.86c22.443-32.656,59.116-51.977,99.209-51.977
			c66.178,0,120.022,53.836,120.022,120.022c0,11.496,9.317,20.813,20.813,20.813c11.496,0,20.813-9.317,20.813-20.813
			C484.249,126.668,357.894,0,202.58,0z M322.602,120.708c-36.728,0-71.326,12.072-99.209,33.655V42.521
			c69.592,6.029,130.803,41.966,170.729,94.886C372.546,126.717,348.264,120.708,322.602,120.708z"/>
	</g>
</g>
<g>
</g>
<g>
</g>
<g>
</g>
<g>
</g>
<g>
</g>
<g>
</g>
<g>
</g>
<g>
</g>
<g>
</g>
<g>
</g>
<g>
</g>
<g>
</g>
<g>
</g>
<g>
</g>
<g>
</g>
</svg>
