<?xml version="1.0" encoding="iso-8859-1"?>
<!-- Generator: Adobe Illustrator 19.0.0, SVG Export Plug-In . SVG Version: 6.00 Build 0)  -->
<svg version="1.1" id="Capa_1" xmlns="http://www.w3.org/2000/svg" xmlns:xlink="http://www.w3.org/1999/xlink" x="0px" y="0px"
	 viewBox="0 0 512.006 512.006" style="enable-background:new 0 0 512.006 512.006;" xml:space="preserve">
<g>
	<g>
		<path d="M117.208,365.192c-46.598,0-84.511,32.935-84.511,73.407s37.913,73.407,84.511,73.407s84.511-32.941,84.511-73.413
			S163.806,365.192,117.208,365.192z M117.208,474.988c-26.192,0-47.499-16.322-47.499-36.395c0-20.067,21.307-36.389,47.499-36.389
			c26.186,0,47.499,16.322,47.499,36.389C164.707,458.666,143.4,474.988,117.208,474.988z"/>
	</g>
</g>
<g>
	<g>
		<path d="M394.798,246.753c-46.604,0-84.511,32.935-84.511,73.407s37.906,73.401,84.511,73.401
			c46.604,0,84.511-32.928,84.511-73.401S441.403,246.753,394.798,246.753z M394.798,356.55c-26.192,0-47.499-16.322-47.499-36.389
			c0-20.073,21.307-36.395,47.499-36.395c26.192,0,47.499,16.322,47.499,36.395C442.297,340.227,420.99,356.55,394.798,356.55z"/>
	</g>
</g>
<g>
	<g>
		<path d="M472.215,3.936c-4.472-3.51-10.326-4.756-15.841-3.399l-277.59,68.472c-8.272,2.042-14.077,9.457-14.077,17.969v351.614
			h37.012V101.481l240.578-59.343v278.022h37.012V18.512C479.309,12.819,476.694,7.452,472.215,3.936z"/>
	</g>
</g>
<g>
	<g>
		<rect x="179.016" y="155.781" transform="matrix(0.9709 -0.2394 0.2394 0.9709 -32.362 82.15)" width="285.912" height="37.011"/>
	</g>
</g>
<g>
</g>
<g>
</g>
<g>
</g>
<g>
</g>
<g>
</g>
<g>
</g>
<g>
</g>
<g>
</g>
<g>
</g>
<g>
</g>
<g>
</g>
<g>
</g>
<g>
</g>
<g>
</g>
<g>
</g>
</svg>
