<?xml version="1.0" encoding="iso-8859-1"?>
<!-- Generator: Adobe Illustrator 19.0.0, SVG Export Plug-In . SVG Version: 6.00 Build 0)  -->
<svg version="1.1" id="Capa_1" xmlns="http://www.w3.org/2000/svg" xmlns:xlink="http://www.w3.org/1999/xlink" x="0px" y="0px"
	 viewBox="0 0 512.003 512.003" style="enable-background:new 0 0 512.003 512.003;" xml:space="preserve">
<g>
	<g>
		<path d="M507.183,243.786l-93.091-99.655c-6.743-7.221-18.075-7.614-25.302-0.865c-7.227,6.749-7.614,18.075-0.865,25.302
			l81.669,87.434l-81.675,87.434c-6.743,7.227-6.361,18.553,0.865,25.302c3.449,3.222,7.841,4.822,12.215,4.822
			c4.792,0,9.566-1.904,13.092-5.681l93.091-99.649C513.61,261.348,513.61,250.667,507.183,243.786z"/>
	</g>
</g>
<g>
	<g>
		<path d="M42.397,256.001l81.681-87.434c6.743-7.226,6.361-18.552-0.865-25.302c-7.215-6.731-18.547-6.361-25.302,0.865
			L4.82,243.786c-6.427,6.88-6.427,17.562,0,24.442l93.091,99.649c3.527,3.777,8.301,5.681,13.086,5.681
			c4.374,0,8.766-1.599,12.209-4.822c7.227-6.749,7.614-18.075,0.865-25.302L42.397,256.001z"/>
	</g>
</g>
<g>
	<g>
		<path d="M494.096,238.105H18.497c-9.888,0-17.902,8.02-17.902,17.902s8.014,17.902,17.902,17.902h475.599
			c9.888,0,17.902-8.014,17.902-17.902S503.984,238.105,494.096,238.105z"/>
	</g>
</g>
<g>
	<g>
		<path d="M368.734,388.793c-6.743-7.227-18.075-7.614-25.302-0.865l-87.434,81.675l-87.44-81.681
			c-7.221-6.737-18.547-6.367-25.302,0.865c-6.743,7.226-6.361,18.552,0.865,25.302l99.655,93.091
			c3.437,3.21,7.829,4.822,12.221,4.822c4.392,0,8.778-1.605,12.221-4.816l99.649-93.091
			C375.095,407.346,375.483,396.02,368.734,388.793z"/>
	</g>
</g>
<g>
	<g>
		<path d="M367.875,97.914L268.226,4.823c-6.886-6.427-17.568-6.427-24.442,0l-99.655,93.091
			c-7.226,6.749-7.614,18.075-0.865,25.302c6.749,7.226,18.081,7.608,25.302,0.865l87.434-81.675l87.434,81.669
			c3.449,3.222,7.841,4.822,12.215,4.822c4.786,0,9.56-1.904,13.092-5.681C375.483,115.989,375.101,104.663,367.875,97.914z"/>
	</g>
</g>
<g>
	<g>
		<path d="M255.999,0.001c-9.888,0-17.902,8.014-17.902,17.902v476.196c0,9.888,8.014,17.902,17.902,17.902
			c9.888,0,17.902-8.014,17.902-17.902V17.904C273.901,8.016,265.886,0.001,255.999,0.001z"/>
	</g>
</g>
<g>
</g>
<g>
</g>
<g>
</g>
<g>
</g>
<g>
</g>
<g>
</g>
<g>
</g>
<g>
</g>
<g>
</g>
<g>
</g>
<g>
</g>
<g>
</g>
<g>
</g>
<g>
</g>
<g>
</g>
</svg>
