<?xml version="1.0" encoding="iso-8859-1"?>
<!-- Generator: Adobe Illustrator 19.0.0, SVG Export Plug-In . SVG Version: 6.00 Build 0)  -->
<svg version="1.1" id="Capa_1" xmlns="http://www.w3.org/2000/svg" xmlns:xlink="http://www.w3.org/1999/xlink" x="0px" y="0px"
	 viewBox="0 0 512 512" style="enable-background:new 0 0 512 512;" xml:space="preserve">
<g>
	<g>
		<path d="M261.926,123.958h-40.421c-62.41,0-113.179,50.769-113.179,113.179v161.684c0,62.405,50.769,113.179,113.179,113.179
			h40.421c62.405,0,113.179-50.774,113.179-113.179V237.137C375.105,174.727,324.33,123.958,261.926,123.958z M342.768,398.821
			c0,44.576-36.266,80.842-80.842,80.842h-40.421c-44.576,0-80.842-36.266-80.842-80.842V237.137
			c0-44.576,36.266-80.842,80.842-80.842h40.421c44.576,0,80.842,36.266,80.842,80.842V398.821z"/>
	</g>
</g>
<g>
	<g>
		<rect x="124.494" y="267.857" width="234.442" height="32.337"/>
	</g>
</g>
<g>
	<g>
		<path d="M387.506,0c-8.93,0-16.168,7.238-16.168,16.168v47.966c0,7.723-6.284,14.013-14.013,14.013h-12.396
			c-7.728,0-14.018-6.284-14.018-14.013c0-25.557-20.793-46.349-46.349-46.349h-11.857c-25.988,0-46.349,20.124-46.349,45.692
			l-0.539,75.571V281.87c0,8.93,7.238,16.168,16.168,16.168s16.168-7.238,16.163-16.168V139.162l0.539-75.566
			c0-7.68,6.025-13.474,14.013-13.474h11.857c7.729,0,14.013,6.284,14.013,14.013c0,25.557,20.798,46.349,46.355,46.349h12.401
			c25.562,0,46.349-20.793,46.349-46.349V16.168C403.674,7.238,396.436,0,387.506,0z"/>
	</g>
</g>
<g>
</g>
<g>
</g>
<g>
</g>
<g>
</g>
<g>
</g>
<g>
</g>
<g>
</g>
<g>
</g>
<g>
</g>
<g>
</g>
<g>
</g>
<g>
</g>
<g>
</g>
<g>
</g>
<g>
</g>
</svg>
