<?xml version="1.0" encoding="iso-8859-1"?>
<!-- Generator: Adobe Illustrator 19.0.0, SVG Export Plug-In . SVG Version: 6.00 Build 0)  -->
<svg version="1.1" id="Capa_1" xmlns="http://www.w3.org/2000/svg" xmlns:xlink="http://www.w3.org/1999/xlink" x="0px" y="0px"
	 viewBox="0 0 512 512" style="enable-background:new 0 0 512 512;" xml:space="preserve">
<g>
	<g>
		<path d="M256,0c-56.125,0-101.79,45.666-101.79,101.79v171.892c0,56.125,45.666,101.784,101.79,101.784
			c56.131,0,101.79-45.94,101.79-102.4V101.79C357.79,45.666,312.131,0,256,0z M321.219,273.067
			c0,36.297-29.257,65.829-65.219,65.829s-65.219-29.257-65.219-65.219V101.79c0-35.962,29.257-65.219,65.219-65.219
			s65.219,29.257,65.219,65.219V273.067z"/>
	</g>
</g>
<g>
	<g>
		<rect x="237.714" y="421.181" width="36.571" height="72.533"/>
	</g>
</g>
<g>
	<g>
		<path d="M328.533,475.429H183.467c-10.1,0-18.286,8.186-18.286,18.286S173.367,512,183.467,512h145.061
			c10.106,0,18.292-8.186,18.292-18.286S338.633,475.429,328.533,475.429z"/>
	</g>
</g>
<g>
	<g>
		<path d="M403.505,186.514c-10.1,0-18.286,8.186-18.286,18.286v68.882c0,71.247-57.972,129.213-129.219,129.213
			c-71.253,0-129.219-57.966-129.219-129.219V204.8c0-10.1-8.186-18.286-18.286-18.286S90.21,194.7,90.21,204.8v68.882
			c0,91.416,74.374,165.784,165.79,165.784s165.79-74.374,165.79-165.79V204.8C421.79,194.7,413.605,186.514,403.505,186.514z"/>
	</g>
</g>
<g>
	<g>
		<path d="M256,54.857c-23.528,0-42.667,19.139-42.667,42.667c0,23.528,19.139,42.667,42.667,42.667
			c23.522,0,42.667-19.139,42.667-42.667C298.667,73.996,279.522,54.857,256,54.857z M256,103.619c-3.358,0-6.095-2.737-6.095-6.095
			s2.737-6.095,6.095-6.095s6.095,2.737,6.095,6.095S259.358,103.619,256,103.619z"/>
	</g>
</g>
<g>
	<g>
		<path d="M256,146.286c-23.528,0-42.667,19.139-42.667,42.667c0,23.528,19.139,42.667,42.667,42.667
			c23.522,0,42.667-19.139,42.667-42.667C298.667,165.425,279.522,146.286,256,146.286z M256,195.048
			c-3.358,0-6.095-2.737-6.095-6.095s2.737-6.095,6.095-6.095s6.095,2.737,6.095,6.095S259.358,195.048,256,195.048z"/>
	</g>
</g>
<g>
	<g>
		<path d="M256,237.714c-23.528,0-42.667,19.145-42.667,42.667c0,23.521,19.139,42.667,42.667,42.667
			c23.522,0,42.667-19.145,42.667-42.667C298.667,256.859,279.522,237.714,256,237.714z M256,286.476
			c-3.358,0-6.095-2.731-6.095-6.095s2.737-6.095,6.095-6.095s6.095,2.731,6.095,6.095S259.358,286.476,256,286.476z"/>
	</g>
</g>
<g>
</g>
<g>
</g>
<g>
</g>
<g>
</g>
<g>
</g>
<g>
</g>
<g>
</g>
<g>
</g>
<g>
</g>
<g>
</g>
<g>
</g>
<g>
</g>
<g>
</g>
<g>
</g>
<g>
</g>
</svg>
