<?xml version="1.0" encoding="iso-8859-1"?>
<!-- Generator: Adobe Illustrator 19.0.0, SVG Export Plug-In . SVG Version: 6.00 Build 0)  -->
<svg version="1.1" id="Capa_1" xmlns="http://www.w3.org/2000/svg" xmlns:xlink="http://www.w3.org/1999/xlink" x="0px" y="0px"
	 viewBox="0 0 512 512" style="enable-background:new 0 0 512 512;" xml:space="preserve">
<g>
	<g>
		<path d="M190.676,19.605c-4.829-3.593-11.064-4.695-16.817-2.953L13.541,64.811C5.507,67.225,0,74.626,0,83.016V460.68
			c0,6.007,2.845,11.666,7.661,15.252c3.32,2.471,7.312,3.758,11.349,3.758c1.831,0,3.675-0.266,5.469-0.798l160.317-48.165
			c8.035-2.414,13.541-9.815,13.541-18.205V34.858C198.337,28.844,195.491,23.186,190.676,19.605z M160.317,398.371L38.02,435.111
			V97.153l122.297-36.74V398.371z"/>
	</g>
</g>
<g>
	<g>
		<path d="M347.362,81.85L186.411,17.217c-5.861-2.357-12.502-1.654-17.73,1.888c-5.228,3.536-8.364,9.435-8.364,15.747v377.663
			c0,7.769,4.721,14.745,11.926,17.641l160.951,64.634c2.281,0.919,4.689,1.369,7.084,1.369c3.745,0,7.458-1.103,10.652-3.257
			c5.228-3.53,8.358-9.435,8.358-15.747V99.491C359.287,91.729,354.566,84.746,347.362,81.85z M321.267,449.033l-122.931-49.369
			V62.973l122.931,49.369V449.033z"/>
	</g>
</g>
<g>
	<g>
		<path d="M504.96,52.398c-4.455-3.612-10.31-5.012-15.905-3.827L336.342,80.887c-8.789,1.857-15.075,9.619-15.075,18.598v377.663
			c0,5.728,2.585,11.159,7.04,14.771c3.415,2.769,7.648,4.239,11.97,4.239c1.312,0,2.63-0.133,3.935-0.412l152.713-32.317
			c8.789-1.857,15.075-9.613,15.075-18.598V67.168C512,61.434,509.415,56.009,504.96,52.398z M473.98,429.427l-114.693,24.269
			V114.896L473.98,90.626V429.427z"/>
	</g>
</g>
<g>
</g>
<g>
</g>
<g>
</g>
<g>
</g>
<g>
</g>
<g>
</g>
<g>
</g>
<g>
</g>
<g>
</g>
<g>
</g>
<g>
</g>
<g>
</g>
<g>
</g>
<g>
</g>
<g>
</g>
</svg>
