<?xml version="1.0" encoding="iso-8859-1"?>
<!-- Generator: Adobe Illustrator 19.0.0, SVG Export Plug-In . SVG Version: 6.00 Build 0)  -->
<svg version="1.1" id="Capa_1" xmlns="http://www.w3.org/2000/svg" xmlns:xlink="http://www.w3.org/1999/xlink" x="0px" y="0px"
	 viewBox="0 0 512 512" style="enable-background:new 0 0 512 512;" xml:space="preserve">
<g>
	<g>
		<path d="M418.473,119.007H17.986C8.052,119.007,0,127.059,0,136.993v238.014c0,9.934,8.052,17.986,17.986,17.986h400.487
			c9.934,0,17.986-8.046,17.986-17.986V136.993C436.459,127.059,428.407,119.007,418.473,119.007z M400.487,357.021H35.972V154.979
			h364.515V357.021z"/>
	</g>
</g>
<g>
	<g>
		<path d="M494.014,175.363h-75.541v35.972h57.555v88.731h-57.555v35.972h75.541c9.94,0,17.986-8.046,17.986-17.986V193.349
			C512,183.415,503.948,175.363,494.014,175.363z"/>
	</g>
</g>
<g>
	<g>
		<rect x="106.717" y="136.993" width="35.972" height="237.414"/>
	</g>
</g>
<g>
</g>
<g>
</g>
<g>
</g>
<g>
</g>
<g>
</g>
<g>
</g>
<g>
</g>
<g>
</g>
<g>
</g>
<g>
</g>
<g>
</g>
<g>
</g>
<g>
</g>
<g>
</g>
<g>
</g>
</svg>
