<?xml version="1.0" encoding="iso-8859-1"?>
<!-- Generator: Adobe Illustrator 19.0.0, SVG Export Plug-In . SVG Version: 6.00 Build 0)  -->
<svg version="1.1" id="Capa_1" xmlns="http://www.w3.org/2000/svg" xmlns:xlink="http://www.w3.org/1999/xlink" x="0px" y="0px"
	 viewBox="0 0 512 512" style="enable-background:new 0 0 512 512;" xml:space="preserve">
<g>
	<g>
		<path d="M181.527,243.132v185.547L80.77,459.65V228.598l75.814-22.271l-9.26-31.525L59.71,200.54
			c-6.993,2.053-11.795,8.471-11.795,15.76v265.583c0,5.213,2.475,10.12,6.664,13.213c2.864,2.114,6.292,3.214,9.764,3.214
			c1.615,0,3.242-0.241,4.824-0.728l133.613-41.07c6.9-2.119,11.603-8.488,11.603-15.699V243.132H181.527z"/>
	</g>
</g>
<g>
	<g>
		<path d="M304.188,236.56v233.68l-99.536-44.432l-13.394,30.003l122.661,54.759c2.141,0.958,4.424,1.429,6.697,1.429
			c3.121,0,6.232-0.893,8.942-2.645c4.665-3.028,7.486-8.214,7.486-13.783V236.56H304.188z"/>
	</g>
</g>
<g>
	<g>
		<path d="M457.909,189.78c-3.91-3.121-9.035-4.304-13.887-3.182l-125.399,28.475l7.272,32.04l105.335-23.919v231.742
			l-114.075,24.581l6.922,32.116l127.042-27.374c7.568-1.632,12.967-8.323,12.967-16.061V202.615
			C464.086,197.621,461.813,192.895,457.909,189.78z"/>
	</g>
</g>
<g>
	<g>
		<path d="M351.396,39.312C326.048,13.958,292.262,0,256.274,0s-69.774,13.958-95.122,39.306
			c-42.214,42.214-51.507,106.124-23.004,159.229c6.735,12.135,14.265,22.282,23.004,31.021l83.234,83.234
			c3.203,3.209,7.409,4.813,11.614,4.813s8.406-1.604,11.614-4.813l83.234-83.234C403.456,176.955,403.702,91.612,351.396,39.312z
			 M327.62,206.328L256,277.948l-71.62-71.625c-6.549-6.549-12.277-14.314-17.397-23.53c-21.488-40.035-14.489-88.36,17.397-120.252
			c19.144-19.144,44.678-29.685,71.894-29.685c27.221,0,52.75,10.541,71.894,29.685C367.66,102.033,367.413,166.534,327.62,206.328z
			"/>
	</g>
</g>
<g>
	<g>
		<path d="M256,73.378c-31.706,0-57.497,25.792-57.497,57.497s25.792,57.497,57.497,57.497s57.497-25.792,57.497-57.497
			S287.706,73.378,256,73.378z M256,155.517c-13.586,0-24.642-11.056-24.642-24.642s11.056-24.642,24.642-24.642
			s24.642,11.056,24.642,24.642S269.586,155.517,256,155.517z"/>
	</g>
</g>
<g>
</g>
<g>
</g>
<g>
</g>
<g>
</g>
<g>
</g>
<g>
</g>
<g>
</g>
<g>
</g>
<g>
</g>
<g>
</g>
<g>
</g>
<g>
</g>
<g>
</g>
<g>
</g>
<g>
</g>
</svg>
