<?xml version="1.0" encoding="iso-8859-1"?>
<!-- Generator: Adobe Illustrator 19.0.0, SVG Export Plug-In . SVG Version: 6.00 Build 0)  -->
<svg version="1.1" id="Capa_1" xmlns="http://www.w3.org/2000/svg" xmlns:xlink="http://www.w3.org/1999/xlink" x="0px" y="0px"
	 viewBox="0 0 512 512" style="enable-background:new 0 0 512 512;" xml:space="preserve">
<g>
	<g>
		<path d="M421.362,126.962c-49.982,0-90.645,40.351-90.645,89.946V294.4c0,49.982,40.662,90.638,90.645,90.638
			c49.975,0,90.638-40.656,90.638-90.638v-76.8C512,167.618,471.338,126.962,421.362,126.962z M470.487,294.4
			c0,27.088-22.037,49.124-49.124,49.124c-27.088,0-49.131-22.037-49.131-49.124v-77.492c0-26.707,22.044-48.432,49.131-48.432
			s49.124,22.037,49.124,49.124V294.4z"/>
	</g>
</g>
<g>
	<g>
		<path d="M351.481,234.897H20.757C9.292,234.897,0,244.189,0,255.654V345.6c0,11.465,9.292,20.757,20.757,20.757
			s20.757-9.292,20.757-20.764v-69.182h309.968c11.465,0,20.757-9.292,20.757-20.757
			C372.238,244.189,362.946,234.897,351.481,234.897z"/>
	</g>
</g>
<g>
	<g>
		<path d="M91.33,234.897c-11.465,0-20.757,9.292-20.757,20.757v69.189c0,11.465,9.292,20.757,20.757,20.757
			c11.465,0,20.757-9.292,20.757-20.757v-69.189C112.086,244.189,102.794,234.897,91.33,234.897z"/>
	</g>
</g>
<g>
	<g>
		<path d="M163.286,234.897c-11.465,0-20.757,9.292-20.757,20.757v86.486c0,11.465,9.292,20.757,20.757,20.757
			s20.757-9.292,20.757-20.757v-86.486C184.043,244.189,174.751,234.897,163.286,234.897z"/>
	</g>
</g>
<g>
</g>
<g>
</g>
<g>
</g>
<g>
</g>
<g>
</g>
<g>
</g>
<g>
</g>
<g>
</g>
<g>
</g>
<g>
</g>
<g>
</g>
<g>
</g>
<g>
</g>
<g>
</g>
<g>
</g>
</svg>
