<?xml version="1.0" encoding="iso-8859-1"?>
<!-- Generator: Adobe Illustrator 19.0.0, SVG Export Plug-In . SVG Version: 6.00 Build 0)  -->
<svg version="1.1" id="Capa_1" xmlns="http://www.w3.org/2000/svg" xmlns:xlink="http://www.w3.org/1999/xlink" x="0px" y="0px"
	 viewBox="0 0 511.998 511.998" style="enable-background:new 0 0 511.998 511.998;" xml:space="preserve">
<g>
	<g>
		<path d="M328.12,250.952c-7.212-7.212-18.892-7.212-26.105,0l-85.385,85.385L44.544,163.715L163.732,44.528l82.326,81.803
			c7.231,7.188,18.917,7.151,26.111-0.086c7.188-7.237,7.145-18.923-0.086-26.111L176.698,5.365
			c-7.212-7.169-18.874-7.151-26.062,0.043L5.406,150.638c-7.2,7.2-7.206,18.874-0.018,26.086l198.154,198.769
			c3.458,3.471,8.16,5.422,13.058,5.428c0.006,0,0.006,0,0.012,0c4.892,0,9.594-1.945,13.046-5.403l98.462-98.462
			C335.332,269.851,335.332,258.159,328.12,250.952z"/>
	</g>
</g>
<g>
	<g>
		<path d="M506.612,335.272L308.458,136.503c-3.458-3.471-8.16-5.428-13.065-5.428c0,0-0.006,0-0.012,0
			c-4.898,0-9.594,1.945-13.052,5.409l-98.461,98.462c-7.212,7.206-7.212,18.898,0,26.105c7.206,7.212,18.898,7.212,26.105,0
			l85.391-85.385l172.08,172.615L348.255,467.469l-77.409-76.886c-7.225-7.182-18.923-7.138-26.105,0.092
			c-7.188,7.237-7.145,18.923,0.086,26.111l90.462,89.852c3.6,3.575,8.302,5.36,13.009,5.36c4.726,0,9.452-1.803,13.058-5.409
			l145.231-145.231C513.793,354.158,513.8,342.485,506.612,335.272z"/>
	</g>
</g>
<g>
</g>
<g>
</g>
<g>
</g>
<g>
</g>
<g>
</g>
<g>
</g>
<g>
</g>
<g>
</g>
<g>
</g>
<g>
</g>
<g>
</g>
<g>
</g>
<g>
</g>
<g>
</g>
<g>
</g>
</svg>
