<?xml version="1.0" encoding="iso-8859-1"?>
<!-- Generator: Adobe Illustrator 19.0.0, SVG Export Plug-In . SVG Version: 6.00 Build 0)  -->
<svg version="1.1" id="Capa_1" xmlns="http://www.w3.org/2000/svg" xmlns:xlink="http://www.w3.org/1999/xlink" x="0px" y="0px"
	 viewBox="0 0 512 512" style="enable-background:new 0 0 512 512;" xml:space="preserve">
<g>
	<g>
		<path d="M256,0C118.28,0,6.244,112.036,6.244,249.756v147.772c0,11.496,9.317,20.813,20.813,20.813h66.602v-41.626H47.87V249.756
			c0-114.763,93.367-208.13,208.13-208.13s208.13,93.367,208.13,208.13v126.959h-43.707v41.626h64.52
			c11.496,0,20.813-9.317,20.813-20.813V249.756C505.756,112.036,393.72,0,256,0z"/>
	</g>
</g>
<g>
	<g>
		<path d="M169.279,289.995H93.659c-11.496,0-20.813,9.317-20.813,20.813v179.686c0,11.419,9.206,20.702,20.626,20.813L169.092,512
			c0.062,0,0.125,0,0.187,0c5.481,0,10.753-2.172,14.652-6.029c3.941-3.913,6.161-9.227,6.161-14.784V310.808
			C190.092,299.312,180.775,289.995,169.279,289.995z M148.466,470.187l-33.995-0.312V331.621h33.995V470.187z"/>
	</g>
</g>
<g>
	<g>
		<path d="M419.035,289.995h-76.314c-11.496,0-20.813,9.317-20.813,20.813v179.686c0,11.496,9.317,20.813,20.813,20.813h76.314
			c11.496,0,20.813-9.317,20.813-20.813V310.808C439.848,299.312,430.531,289.995,419.035,289.995z M398.222,469.68h-34.688v-138.06
			h34.688V469.68z"/>
	</g>
</g>
<g>
</g>
<g>
</g>
<g>
</g>
<g>
</g>
<g>
</g>
<g>
</g>
<g>
</g>
<g>
</g>
<g>
</g>
<g>
</g>
<g>
</g>
<g>
</g>
<g>
</g>
<g>
</g>
<g>
</g>
</svg>
