<?xml version="1.0" encoding="iso-8859-1"?>
<!-- Generator: Adobe Illustrator 19.0.0, SVG Export Plug-In . SVG Version: 6.00 Build 0)  -->
<svg version="1.1" id="Capa_1" xmlns="http://www.w3.org/2000/svg" xmlns:xlink="http://www.w3.org/1999/xlink" x="0px" y="0px"
	 viewBox="0 0 512 512" style="enable-background:new 0 0 512 512;" xml:space="preserve">
<g>
	<g>
		<path d="M278.505,0H27.537C17.115,0,8.667,8.447,8.667,18.87v228.324c0,10.422,8.447,18.87,18.87,18.87h250.968
			c10.422,0,18.87-8.447,18.87-18.87V18.87C297.375,8.447,288.927,0,278.505,0z M259.629,228.324H46.4V37.74h213.229V228.324z"/>
	</g>
</g>
<g>
	<g>
		<path d="M499.59,298.897l-57.559-92.902l57.849-99.658c0.195-0.34,0.384-0.686,0.56-1.038c3.849-7.711,3.409-17.09-1.164-24.474
			c-4.504-7.29-12.259-11.636-20.75-11.636h-200.02v37.74h177.388L403.7,196.837c-3.497,6.026-3.39,13.492,0.283,19.411
			l51.143,82.524H181.634v-51.577h-37.74v70.447c0,10.422,8.447,18.87,18.87,18.87h315.754c9.146,0,17.53-5.051,21.876-13.171
			C504.653,315.377,504.213,305.816,499.59,298.897z"/>
	</g>
</g>
<g>
	<g>
		<path d="M27.531,228.324c-10.422,0-18.87,8.447-18.87,18.87V493.13c0,10.422,8.447,18.87,18.87,18.87s18.87-8.441,18.87-18.87
			V247.194C46.4,236.772,37.953,228.324,27.531,228.324z"/>
	</g>
</g>
<g>
</g>
<g>
</g>
<g>
</g>
<g>
</g>
<g>
</g>
<g>
</g>
<g>
</g>
<g>
</g>
<g>
</g>
<g>
</g>
<g>
</g>
<g>
</g>
<g>
</g>
<g>
</g>
<g>
</g>
</svg>
