<?xml version="1.0" encoding="iso-8859-1"?>
<!-- Generator: Adobe Illustrator 19.0.0, SVG Export Plug-In . SVG Version: 6.00 Build 0)  -->
<svg version="1.1" id="Capa_1" xmlns="http://www.w3.org/2000/svg" xmlns:xlink="http://www.w3.org/1999/xlink" x="0px" y="0px"
	 viewBox="0 0 512 512" style="enable-background:new 0 0 512 512;" xml:space="preserve">
<g>
	<g>
		<path d="M500.191,10.674C496.879,4.128,490.171,0,482.834,0H29.164c-7.336,0-14.044,4.128-17.356,10.674
			c-3.305,6.546-2.644,14.401,1.705,20.305l177.677,241.133v220.445c0,10.739,8.704,19.443,19.443,19.443h90.734
			c10.739,0,19.443-8.704,19.443-19.443V272.112L498.486,30.979C502.841,25.075,503.496,17.22,500.191,10.674z M285.714,254.192
			c-2.463,3.338-3.791,7.375-3.791,11.53v207.392h-51.848V265.721c0-4.154-1.329-8.192-3.791-11.53L67.641,38.886h376.722
			L285.714,254.192z"/>
	</g>
</g>
<g>
</g>
<g>
</g>
<g>
</g>
<g>
</g>
<g>
</g>
<g>
</g>
<g>
</g>
<g>
</g>
<g>
</g>
<g>
</g>
<g>
</g>
<g>
</g>
<g>
</g>
<g>
</g>
<g>
</g>
</svg>
