<?xml version="1.0" encoding="iso-8859-1"?>
<!-- Generator: Adobe Illustrator 19.0.0, SVG Export Plug-In . SVG Version: 6.00 Build 0)  -->
<svg version="1.1" id="Capa_1" xmlns="http://www.w3.org/2000/svg" xmlns:xlink="http://www.w3.org/1999/xlink" x="0px" y="0px"
	 viewBox="0 0 512.003 512.003" style="enable-background:new 0 0 512.003 512.003;" xml:space="preserve">
<g>
	<g>
		<path d="M459.366,200.975v275.14H52.637v-275.14H16.749v293.084c0,9.911,8.033,17.944,17.944,17.944H477.31
			c9.911,0,17.944-8.033,17.944-17.944V200.975H459.366z"/>
	</g>
</g>
<g>
	<g>
		<path d="M488.77,187.17l-63.402-52.635l-22.92,27.61l45.859,38.077l-192.305,143.45L63.708,200.227l45.237-37.479l-22.896-27.634
			l-62.804,52.037c-4.241,3.511-6.627,8.775-6.49,14.277c0.138,5.503,2.799,10.635,7.207,13.924l221.308,165.084
			c3.182,2.381,6.956,3.565,10.73,3.565c3.774,0,7.548-1.184,10.73-3.559L488.04,215.36c4.408-3.29,7.064-8.422,7.208-13.919
			C495.385,195.945,493.005,190.681,488.77,187.17z"/>
	</g>
</g>
<g>
	<g>
		<path d="M267.45,4.13c-6.609-5.485-16.191-5.509-22.825-0.06L178.232,58.5l22.753,27.753l54.956-45.051l54.998,45.589
			l22.902-27.634L267.45,4.13z"/>
	</g>
</g>
<g>
	<g>
		<path d="M413.31,53.835H98.693c-9.911,0-17.944,8.033-17.944,17.944v177.047h35.888V89.723h278.729v159.103h35.888V71.779
			C431.254,61.868,423.221,53.835,413.31,53.835z"/>
	</g>
</g>
<g>
	<g>
		<path d="M333.262,221.186l-65.196-59.215c-6.837-6.215-17.286-6.215-24.129,0l-65.196,59.215
			c-7.339,6.663-7.883,18.01-1.22,25.349c3.547,3.9,8.41,5.88,13.29,5.88c4.301,0,8.619-1.537,12.058-4.659l53.132-48.257
			l53.138,48.257c7.327,6.657,18.686,6.113,25.343-1.22C341.145,239.196,340.601,227.849,333.262,221.186z"/>
	</g>
</g>
<g>
</g>
<g>
</g>
<g>
</g>
<g>
</g>
<g>
</g>
<g>
</g>
<g>
</g>
<g>
</g>
<g>
</g>
<g>
</g>
<g>
</g>
<g>
</g>
<g>
</g>
<g>
</g>
<g>
</g>
</svg>
