<?xml version="1.0" encoding="iso-8859-1"?>
<!-- Generator: Adobe Illustrator 19.0.0, SVG Export Plug-In . SVG Version: 6.00 Build 0)  -->
<svg version="1.1" id="Capa_1" xmlns="http://www.w3.org/2000/svg" xmlns:xlink="http://www.w3.org/1999/xlink" x="0px" y="0px"
	 viewBox="0 0 512 512" style="enable-background:new 0 0 512 512;" xml:space="preserve">
<g>
	<g>
		<path d="M440.749,0H71.251C60.803,0,52.335,8.468,52.335,18.916v474.167c0,10.448,8.468,18.916,18.916,18.916h369.498
			c10.448,0,18.916-8.468,18.916-18.916V18.916C459.665,8.468,451.197,0,440.749,0z M421.832,474.167H90.167V37.833h331.665V474.167
			z"/>
	</g>
</g>
<g>
	<g>
		<path d="M363.823,76.296H147.547c-10.448,0-18.916,8.468-18.916,18.916v97.734c0,10.448,8.468,18.916,18.916,18.916h216.282
			c10.448,0,18.916-8.468,18.91-18.916V95.212C382.739,84.764,374.271,76.296,363.823,76.296z M344.906,174.03H166.463v-59.901
			h178.443V174.03z"/>
	</g>
</g>
<g>
	<g>
		<path d="M356.887,257.892h-209.34c-10.448,0-18.916,8.468-18.916,18.916c0,10.448,8.468,18.916,18.916,18.916h209.34
			c10.448,0,18.916-8.468,18.916-18.916C375.803,266.36,367.335,257.892,356.887,257.892z"/>
	</g>
</g>
<g>
	<g>
		<path d="M364.453,327.882H147.547c-10.448,0-18.916,8.468-18.916,18.916c0,10.448,8.468,18.916,18.916,18.916h216.906
			c10.454,0,18.916-8.468,18.916-18.916C383.369,336.35,374.901,327.882,364.453,327.882z"/>
	</g>
</g>
<g>
	<g>
		<path d="M364.453,397.872H147.547c-10.448,0-18.916,8.468-18.916,18.916s8.468,18.916,18.916,18.916h216.906
			c10.454,0,18.916-8.468,18.916-18.916S374.901,397.872,364.453,397.872z"/>
	</g>
</g>
<g>
</g>
<g>
</g>
<g>
</g>
<g>
</g>
<g>
</g>
<g>
</g>
<g>
</g>
<g>
</g>
<g>
</g>
<g>
</g>
<g>
</g>
<g>
</g>
<g>
</g>
<g>
</g>
<g>
</g>
</svg>
