<?xml version="1.0" encoding="iso-8859-1"?>
<!-- Generator: Adobe Illustrator 19.0.0, SVG Export Plug-In . SVG Version: 6.00 Build 0)  -->
<svg version="1.1" id="Capa_1" xmlns="http://www.w3.org/2000/svg" xmlns:xlink="http://www.w3.org/1999/xlink" x="0px" y="0px"
	 viewBox="0 0 512 512" style="enable-background:new 0 0 512 512;" xml:space="preserve">
<g>
	<g>
		<path d="M478.989,3.236H33.011C14.81,3.236,0,18.046,0,36.248v439.504c0,18.512,14.499,33.011,33.011,33.011h445.977
			c18.506,0,33.011-14.506,33.011-33.011V36.248C512,17.736,497.494,3.236,478.989,3.236z M473.163,469.927H38.837V42.073h434.326
			V469.927z"/>
	</g>
</g>
<g>
	<g>
		<rect x="19.418" y="178.65" width="473.81" height="38.837"/>
	</g>
</g>
<g>
	<g>
		<path d="M137.871,66.67c-23.917,0-43.368,19.457-43.368,43.368c0,23.911,19.457,43.368,43.368,43.368s43.368-19.457,43.368-43.368
			C181.239,86.127,161.788,66.67,137.871,66.67z M137.871,114.569c-2.498,0-4.531-2.032-4.531-4.531
			c0-2.498,2.032-4.531,4.531-4.531c2.499,0,4.531,2.032,4.531,4.531C142.402,112.536,140.37,114.569,137.871,114.569z"/>
	</g>
</g>
<g>
	<g>
		<path d="M374.776,66.67c-23.911,0-43.368,19.457-43.368,43.368c0,23.911,19.457,43.368,43.368,43.368
			c23.917,0,43.368-19.457,43.368-43.368C418.144,86.127,398.687,66.67,374.776,66.67z M374.776,114.569
			c-2.499,0-4.531-2.032-4.531-4.531c0-2.498,2.032-4.531,4.531-4.531c2.498,0,4.531,2.032,4.531,4.531
			C379.307,112.536,377.275,114.569,374.776,114.569z"/>
	</g>
</g>
<g>
</g>
<g>
</g>
<g>
</g>
<g>
</g>
<g>
</g>
<g>
</g>
<g>
</g>
<g>
</g>
<g>
</g>
<g>
</g>
<g>
</g>
<g>
</g>
<g>
</g>
<g>
</g>
<g>
</g>
</svg>
