<?xml version="1.0" encoding="iso-8859-1"?>
<!-- Generator: Adobe Illustrator 19.0.0, SVG Export Plug-In . SVG Version: 6.00 Build 0)  -->
<svg version="1.1" id="Capa_1" xmlns="http://www.w3.org/2000/svg" xmlns:xlink="http://www.w3.org/1999/xlink" x="0px" y="0px"
	 viewBox="0 0 512 512" style="enable-background:new 0 0 512 512;" xml:space="preserve">
<g>
	<g>
		<path d="M366.191,129.113H16.696C7.474,129.113,0,136.587,0,145.809s7.474,16.696,16.696,16.696h332.8v332.8
			c0,9.222,7.474,16.696,16.696,16.696s16.696-7.474,16.696-16.696V145.809C382.887,136.587,375.413,129.113,366.191,129.113z"/>
	</g>
</g>
<g>
	<g>
		<path d="M145.809,0c-9.222,0-16.696,7.474-16.696,16.696v129.113c0,9.222,7.474,16.696,16.696,16.696s16.696-7.474,16.696-16.696
			V16.696C162.504,7.474,155.03,0,145.809,0z"/>
	</g>
</g>
<g>
	<g>
		<path d="M315.548,349.496H162.504v-155.27c0-9.222-7.474-16.696-16.696-16.696s-16.696,7.474-16.696,16.696v171.965
			c0,9.222,7.474,16.696,16.696,16.696h169.739c9.222,0,16.696-7.474,16.696-16.696S324.769,349.496,315.548,349.496z"/>
	</g>
</g>
<g>
	<g>
		<path d="M495.304,349.496H366.191c-9.222,0-16.696,7.474-16.696,16.696s7.474,16.696,16.696,16.696h129.113
			c9.222,0,16.696-7.474,16.696-16.696S504.526,349.496,495.304,349.496z"/>
	</g>
</g>
<g>
</g>
<g>
</g>
<g>
</g>
<g>
</g>
<g>
</g>
<g>
</g>
<g>
</g>
<g>
</g>
<g>
</g>
<g>
</g>
<g>
</g>
<g>
</g>
<g>
</g>
<g>
</g>
<g>
</g>
</svg>
