<?xml version="1.0" encoding="iso-8859-1"?>
<!-- Generator: Adobe Illustrator 19.0.0, SVG Export Plug-In . SVG Version: 6.00 Build 0)  -->
<svg version="1.1" id="Capa_1" xmlns="http://www.w3.org/2000/svg" xmlns:xlink="http://www.w3.org/1999/xlink" x="0px" y="0px"
	 viewBox="0 0 512 512" style="enable-background:new 0 0 512 512;" xml:space="preserve">
<g>
	<g>
		<path d="M494.664,30.628H17.336C7.761,30.628,0,38.388,0,47.964v325.923c0,9.575,7.761,17.336,17.336,17.336h380.544
			l84.486,85.029c3.317,3.34,7.773,5.12,12.303,5.12c2.219,0,4.461-0.428,6.605-1.312c6.49-2.67,10.725-9.003,10.725-16.025V47.964
			C512,38.388,504.239,30.628,494.664,30.628z M477.327,421.99l-59.938-60.319c-3.253-3.282-7.68-5.12-12.297-5.12H34.673V65.3
			h442.655V421.99z"/>
	</g>
</g>
<g>
	<g>
		<path d="M256,154.871c-30.593,0-55.476,24.889-55.476,55.476s24.889,55.476,55.476,55.476c30.593,0,55.482-24.889,55.482-55.476
			S286.593,154.871,256,154.871z M256,231.151c-11.471,0-20.804-9.333-20.804-20.804c0-11.471,9.333-20.804,20.804-20.804
			c11.471,0,20.809,9.333,20.809,20.804C276.809,221.818,267.471,231.151,256,231.151z"/>
	</g>
</g>
<g>
	<g>
		<path d="M123.088,154.871c-30.593,0-55.476,24.889-55.476,55.476s24.889,55.476,55.476,55.476
			c30.587,0,55.476-24.889,55.476-55.476S153.681,154.871,123.088,154.871z M123.088,231.151c-11.471,0-20.804-9.333-20.804-20.804
			c0-11.471,9.333-20.804,20.804-20.804c11.471,0,20.804,9.333,20.804,20.804C143.892,221.818,134.559,231.151,123.088,231.151z"/>
	</g>
</g>
<g>
	<g>
		<path d="M388.912,154.871c-30.587,0-55.476,24.889-55.476,55.476s24.889,55.476,55.476,55.476
			c30.593,0,55.482-24.889,55.482-55.476S419.505,154.871,388.912,154.871z M388.912,231.151c-11.471,0-20.804-9.333-20.804-20.804
			c0-11.471,9.339-20.804,20.804-20.804c11.471,0,20.809,9.333,20.809,20.804C409.721,221.818,400.383,231.151,388.912,231.151z"/>
	</g>
</g>
<g>
</g>
<g>
</g>
<g>
</g>
<g>
</g>
<g>
</g>
<g>
</g>
<g>
</g>
<g>
</g>
<g>
</g>
<g>
</g>
<g>
</g>
<g>
</g>
<g>
</g>
<g>
</g>
<g>
</g>
</svg>
