<?xml version="1.0" encoding="iso-8859-1"?>
<!-- Generator: Adobe Illustrator 19.0.0, SVG Export Plug-In . SVG Version: 6.00 Build 0)  -->
<svg version="1.1" id="Capa_1" xmlns="http://www.w3.org/2000/svg" xmlns:xlink="http://www.w3.org/1999/xlink" x="0px" y="0px"
	 viewBox="0 0 512 512" style="enable-background:new 0 0 512 512;" xml:space="preserve">
<g>
	<g>
		<path d="M411.861,213.687C398.582,139.999,332.913,84.3,256,84.3c-76.653,0-142.537,55.711-156.318,129.381
			C44.073,217.521,0,263.996,0,320.564C0,379.641,48.313,427.7,107.7,427.7h297.163C463.935,427.7,512,379.641,512,320.564
			C512,264.018,467.73,217.561,411.861,213.687z M404.863,393.868H107.7c-40.734,0-73.868-32.885-73.868-73.304
			c0-41.107,32.197-73.304,73.304-73.304h7.33c8.78,0,16.104-6.716,16.854-15.467c5.475-63.735,60.245-113.661,124.679-113.661
			c64.615,0,119.13,49.864,124.104,113.531c0.688,8.802,8.035,15.597,16.866,15.597h7.33c40.729,0,73.868,32.88,73.868,73.304
			C478.167,361.67,445.97,393.868,404.863,393.868z"/>
	</g>
</g>
<g>
</g>
<g>
</g>
<g>
</g>
<g>
</g>
<g>
</g>
<g>
</g>
<g>
</g>
<g>
</g>
<g>
</g>
<g>
</g>
<g>
</g>
<g>
</g>
<g>
</g>
<g>
</g>
<g>
</g>
</svg>
