<?xml version="1.0" encoding="iso-8859-1"?>
<!-- Generator: Adobe Illustrator 19.0.0, SVG Export Plug-In . SVG Version: 6.00 Build 0)  -->
<svg version="1.1" id="Capa_1" xmlns="http://www.w3.org/2000/svg" xmlns:xlink="http://www.w3.org/1999/xlink" x="0px" y="0px"
	 viewBox="0 0 511.998 511.998" style="enable-background:new 0 0 511.998 511.998;" xml:space="preserve">
<g>
	<g>
		<path d="M506.484,136.376L375.347,5.239c-6.989-6.983-18.307-6.989-25.296,0l-147.16,147.16c-6.989,6.983-6.989,18.313,0,25.296
			l131.143,131.137c3.351,3.357,7.901,5.242,12.648,5.242s9.291-1.89,12.648-5.242l147.154-147.154
			c3.357-3.351,5.242-7.907,5.242-12.648C511.725,144.283,509.841,139.733,506.484,136.376z M346.682,270.888L240.841,165.047
			L362.699,43.189l105.847,105.835L346.682,270.888z"/>
	</g>
</g>
<g>
	<g>
		<path d="M309.108,334.3L177.971,203.164c-6.983-6.983-18.313-6.983-25.296,0L5.51,350.324c-6.983,6.983-6.983,18.307,0,25.296
			l131.137,131.137c3.357,3.357,7.907,5.242,12.654,5.242c4.741,0,9.291-1.884,12.648-5.242l147.16-147.16
			c3.357-3.351,5.242-7.901,5.242-12.648S312.465,337.658,309.108,334.3z M149.3,468.812L43.465,362.972l121.858-121.858
			l105.835,105.835L149.3,468.812z"/>
	</g>
</g>
<g>
	<g>
		<path d="M362.27,149.734c-6.989-6.989-18.307-6.989-25.296,0L156.885,329.822c-6.989,6.983-6.989,18.313,0,25.296
			c3.488,3.494,8.068,5.242,12.648,5.242c4.574,0,9.154-1.747,12.648-5.242L362.27,175.029
			C369.259,168.047,369.259,156.717,362.27,149.734z"/>
	</g>
</g>
<g>
</g>
<g>
</g>
<g>
</g>
<g>
</g>
<g>
</g>
<g>
</g>
<g>
</g>
<g>
</g>
<g>
</g>
<g>
</g>
<g>
</g>
<g>
</g>
<g>
</g>
<g>
</g>
<g>
</g>
</svg>
