<?xml version="1.0" encoding="iso-8859-1"?>
<!-- Generator: Adobe Illustrator 19.0.0, SVG Export Plug-In . SVG Version: 6.00 Build 0)  -->
<svg version="1.1" id="Capa_1" xmlns="http://www.w3.org/2000/svg" xmlns:xlink="http://www.w3.org/1999/xlink" x="0px" y="0px"
	 viewBox="0 0 512 512" style="enable-background:new 0 0 512 512;" xml:space="preserve">
<g>
	<g>
		<path d="M423.062,6.355C419.439,2.312,414.268,0,408.836,0H20.378C9.826,0,1.274,8.552,1.274,19.104v231.164
			c0,10.552,8.552,19.104,19.104,19.104h362.985c9.737,0,17.926-7.336,18.99-17.009L427.826,21.2
			C428.418,15.799,426.686,10.399,423.062,6.355z M366.252,231.164H39.483V38.209h348.033L366.252,231.164z"/>
	</g>
</g>
<g>
	<g>
		<path d="M491.622,38.209h-87.881v38.209h68.776v116.537h-84.697v38.209h103.801c10.552,0,19.104-8.552,19.104-19.104V57.313
			C510.726,46.761,502.174,38.209,491.622,38.209z"/>
	</g>
</g>
<g>
	<g>
		<path d="M195.502,250.269v157.93c0,3.452-2.917,6.368-6.368,6.368H31.841v38.209h157.294c24.581,0,44.577-20.002,44.577-44.577
			v-157.93H195.502z"/>
	</g>
</g>
<g>
	<g>
		<path d="M31.841,348.338c-10.552,0-19.104,8.552-19.104,19.104v125.453c0,10.552,8.552,19.104,19.104,19.104
			c10.552,0,19.104-8.546,19.104-19.104V367.443C50.945,356.891,42.393,348.338,31.841,348.338z"/>
	</g>
</g>
<g>
</g>
<g>
</g>
<g>
</g>
<g>
</g>
<g>
</g>
<g>
</g>
<g>
</g>
<g>
</g>
<g>
</g>
<g>
</g>
<g>
</g>
<g>
</g>
<g>
</g>
<g>
</g>
<g>
</g>
</svg>
