<?xml version="1.0" encoding="iso-8859-1"?>
<!-- Generator: Adobe Illustrator 19.0.0, SVG Export Plug-In . SVG Version: 6.00 Build 0)  -->
<svg version="1.1" id="Capa_1" xmlns="http://www.w3.org/2000/svg" xmlns:xlink="http://www.w3.org/1999/xlink" x="0px" y="0px"
	 viewBox="0 0 512 512" style="enable-background:new 0 0 512 512;" xml:space="preserve">
<g>
	<g>
		<path d="M256.589,94.161c-97.351,0-176.552,93.72-176.552,208.92S159.238,512,256.589,512c97.357,0,176.558-93.72,176.552-208.92
			C433.14,187.88,353.939,94.161,256.589,94.161z M256.589,476.69c-77.883,0-141.241-77.877-141.241-173.609
			c0-95.726,63.359-173.609,141.241-173.609S397.836,207.354,397.83,303.08C397.83,398.813,334.471,476.69,256.589,476.69z"/>
	</g>
</g>
<g>
	<g>
		<rect x="112.405" y="203.034" width="288.368" height="35.31"/>
	</g>
</g>
<g>
	<g>
		<rect x="238.933" y="220.101" width="35.31" height="274.244"/>
	</g>
</g>
<g>
	<g>
		<path d="M484.34,301.315h-68.849c-9.752,0-17.655,7.904-17.655,17.655c0,9.752,7.904,17.655,17.655,17.655h68.849
			c9.752,0,17.655-7.904,17.655-17.655C501.995,309.219,494.092,301.315,484.34,301.315z"/>
	</g>
</g>
<g>
	<g>
		<path d="M476.672,381.993l-68.267-18.832c-9.369-2.613-19.126,2.919-21.71,12.323c-2.595,9.398,2.919,19.12,12.323,21.71
			l68.267,18.832c1.571,0.435,3.148,0.641,4.708,0.641c7.745,0,14.854-5.138,17.002-12.965
			C491.591,394.305,486.076,384.583,476.672,381.993z"/>
	</g>
</g>
<g>
	<g>
		<path d="M96.515,301.315H27.66c-9.752,0-17.655,7.904-17.655,17.655c0,9.752,7.904,17.655,17.655,17.655h68.855
			c9.752,0,17.655-7.904,17.655-17.655C114.17,309.219,106.266,301.315,96.515,301.315z"/>
	</g>
</g>
<g>
	<g>
		<path d="M498.429,233.684c-2.572-9.404-12.253-14.954-21.692-12.37l-68.849,18.832c-9.404,2.572-14.948,12.282-12.37,21.692
			c2.148,7.845,9.263,13,17.02,13c1.536,0,3.107-0.206,4.673-0.636l68.849-18.832C495.463,252.799,501.007,243.088,498.429,233.684z
			"/>
	</g>
</g>
<g>
	<g>
		<path d="M104.118,240.152l-68.855-18.832c-9.404-2.578-19.115,2.966-21.686,12.37c-2.578,9.404,2.966,19.115,12.37,21.686
			l68.855,18.832c1.56,0.424,3.125,0.63,4.667,0.63c7.762,0,14.877-5.155,17.02-13C119.066,252.434,113.523,242.723,104.118,240.152
			z"/>
	</g>
</g>
<g>
	<g>
		<path d="M125.305,375.478c-2.589-9.398-12.3-14.93-21.716-12.323l-68.267,18.832c-9.398,2.595-14.913,12.312-12.323,21.716
			c2.16,7.827,9.263,12.965,17.008,12.965c1.56,0,3.137-0.206,4.708-0.647l68.267-18.832
			C122.38,394.599,127.894,384.883,125.305,375.478z"/>
	</g>
</g>
<g>
	<g>
		<path d="M346.041,0c-26.283,0-47.669,21.386-47.669,47.669c0,26.283,21.386,47.669,47.669,47.669
			c26.289,0,47.669-21.386,47.669-47.669C393.71,21.386,372.33,0,346.041,0z M346.041,60.028c-6.821,0-12.359-5.544-12.359-12.359
			c0-6.815,5.544-12.359,12.359-12.359S358.4,40.854,358.4,47.669C358.4,54.484,352.862,60.028,346.041,60.028z"/>
	</g>
</g>
<g>
	<g>
		<rect x="302.986" y="85.96" transform="matrix(0.2622 -0.965 0.965 0.2622 144.2511 395.9043)" width="56.107" height="35.31"/>
	</g>
</g>
<g>
	<g>
		<path d="M167.136,0c-26.283,0-47.669,21.386-47.669,47.669c0,26.283,21.386,47.669,47.669,47.669
			c26.289,0,47.669-21.386,47.669-47.669C214.805,21.386,193.418,0,167.136,0z M167.136,60.028c-6.815,0-12.359-5.544-12.359-12.359
			c0-6.815,5.544-12.359,12.359-12.359c6.815,0,12.359,5.544,12.359,12.359C179.494,54.484,173.951,60.028,167.136,60.028z"/>
	</g>
</g>
<g>
	<g>
		<rect x="164.484" y="75.529" transform="matrix(0.965 -0.2622 0.2622 0.965 -20.7872 51.382)" width="35.31" height="56.107"/>
	</g>
</g>
<g>
</g>
<g>
</g>
<g>
</g>
<g>
</g>
<g>
</g>
<g>
</g>
<g>
</g>
<g>
</g>
<g>
</g>
<g>
</g>
<g>
</g>
<g>
</g>
<g>
</g>
<g>
</g>
<g>
</g>
</svg>
