<?xml version="1.0" encoding="iso-8859-1"?>
<!-- Generator: Adobe Illustrator 19.0.0, SVG Export Plug-In . SVG Version: 6.00 Build 0)  -->
<svg version="1.1" id="Capa_1" xmlns="http://www.w3.org/2000/svg" xmlns:xlink="http://www.w3.org/1999/xlink" x="0px" y="0px"
	 viewBox="0 0 512 512" style="enable-background:new 0 0 512 512;" xml:space="preserve">
<g>
	<g>
		<path d="M472.403,0H39.597C18.945,0,2.763,16.183,2.763,36.835v438.331C2.763,495.817,18.945,512,39.597,512h432.806
			c20.652,0,36.835-16.177,36.835-36.835V36.835C509.237,16.183,493.055,0,472.403,0z M472.403,475.165H39.597L39.315,36.859
			c0,0,0.086-0.025,0.282-0.025h432.806V475.165z"/>
	</g>
</g>
<g>
	<g>
		<rect x="21.18" y="152.249" width="469.026" height="36.835"/>
	</g>
</g>
<g>
	<g>
		<circle cx="97.305" cy="94.542" r="29.468"/>
	</g>
</g>
<g>
	<g>
		<circle cx="173.429" cy="94.542" r="29.468"/>
	</g>
</g>
<g>
	<g>
		<path d="M401.803,76.125H274.11c-10.172,0-18.417,8.245-18.417,18.417c0,10.172,8.245,18.417,18.417,18.417h127.693
			c10.172,0,18.417-8.245,18.417-18.417C420.221,84.37,411.976,76.125,401.803,76.125z"/>
	</g>
</g>
<g>
</g>
<g>
</g>
<g>
</g>
<g>
</g>
<g>
</g>
<g>
</g>
<g>
</g>
<g>
</g>
<g>
</g>
<g>
</g>
<g>
</g>
<g>
</g>
<g>
</g>
<g>
</g>
<g>
</g>
</svg>
