<?xml version="1.0" encoding="iso-8859-1"?>
<!-- Generator: Adobe Illustrator 19.0.0, SVG Export Plug-In . SVG Version: 6.00 Build 0)  -->
<svg version="1.1" id="Capa_1" xmlns="http://www.w3.org/2000/svg" xmlns:xlink="http://www.w3.org/1999/xlink" x="0px" y="0px"
	 viewBox="0 0 512.002 512.002" style="enable-background:new 0 0 512.002 512.002;" xml:space="preserve">
<g>
	<g>
		<path d="M506.706,132.995L379.007,5.296c-7.047-7.054-18.456-7.06-25.528-0.03L208.915,149.228
			c-3.403,3.385-5.313,7.987-5.319,12.788c-0.006,4.795,1.903,9.403,5.295,12.794l31.925,31.925c7.054,7.06,18.498,7.06,25.558,0
			c7.054-7.054,7.054-18.498,0-25.552l-19.125-19.125L366.201,43.6l102.201,102.195L349.938,264.754l-19.119-19.119
			c-7.06-7.06-18.492-7.06-25.552,0c-7.06,7.054-7.06,18.498,0,25.552l31.925,31.925c3.385,3.391,7.981,5.295,12.776,5.295
			c0.006,0,0.012,0,0.018,0c4.801-0.006,9.397-1.922,12.788-5.319l143.962-144.565C513.766,151.463,513.754,140.037,506.706,132.995
			z"/>
	</g>
</g>
<g>
	<g>
		<path d="M303.117,337.193l-31.925-31.925c-7.06-7.06-18.498-7.06-25.558,0c-7.06,7.06-7.06,18.498,0,25.552l19.119,19.125
			L145.794,468.403L43.599,366.202l118.453-118.953l19.125,19.119c7.054,7.06,18.498,7.06,25.558,0c7.06-7.06,7.06-18.498,0-25.558
			l-31.925-31.925c-3.385-3.385-7.987-5.289-12.776-5.289c-0.006,0-0.012,0-0.018,0c-4.801,0.006-9.397,1.915-12.788,5.319
			L5.265,353.48c-7.029,7.066-7.017,18.48,0.03,25.528l127.699,127.699c3.524,3.53,8.15,5.295,12.776,5.295
			c4.614,0,9.228-1.753,12.758-5.265l144.565-143.962c3.403-3.385,5.313-7.987,5.319-12.788
			C308.418,345.186,306.508,340.584,303.117,337.193z"/>
	</g>
</g>
<g>
	<g>
		<path d="M451.892,426.341l-59.633-59.633c-7.06-7.06-18.492-7.06-25.552,0c-7.06,7.054-7.06,18.498,0,25.552l59.633,59.633
			c3.53,3.53,8.15,5.295,12.776,5.295c4.626,0,9.246-1.765,12.776-5.295C458.952,444.839,458.952,433.394,451.892,426.341z"/>
	</g>
</g>
<g>
	<g>
		<path d="M490.039,338.066l-51.2-25.901c-8.903-4.506-19.769-0.946-24.281,7.963c-4.506,8.903-0.946,19.775,7.963,24.281
			l51.2,25.901c2.62,1.325,5.403,1.952,8.15,1.952c6.596,0,12.951-3.632,16.131-9.915
			C502.508,353.444,498.948,342.572,490.039,338.066z"/>
	</g>
</g>
<g>
	<g>
		<path d="M370.303,473.728l-25.901-51.2c-4.506-8.909-15.378-12.463-24.281-7.963c-8.903,4.506-12.469,15.372-7.963,24.281
			l25.901,51.2c3.186,6.283,9.541,9.915,16.137,9.915c2.747,0,5.53-0.632,8.144-1.952
			C371.243,493.503,374.809,482.637,370.303,473.728z"/>
	</g>
</g>
<g>
	<g>
		<path d="M145.294,119.743L85.661,60.11c-7.054-7.06-18.498-7.06-25.552,0c-7.06,7.054-7.06,18.498,0,25.552l59.633,59.633
			c3.524,3.53,8.15,5.295,12.776,5.295c4.626,0,9.252-1.765,12.776-5.295C152.354,138.242,152.354,126.797,145.294,119.743z"/>
	</g>
</g>
<g>
	<g>
		<path d="M199.843,73.163l-25.901-51.2c-4.506-8.903-15.372-12.481-24.281-7.969c-8.909,4.506-12.475,15.372-7.969,24.281
			l25.901,51.2c3.18,6.289,9.535,9.915,16.137,9.915c2.741,0,5.53-0.626,8.144-1.946C200.783,92.939,204.349,82.072,199.843,73.163z
			"/>
	</g>
</g>
<g>
	<g>
		<path d="M89.468,167.588l-51.2-25.901c-8.903-4.512-19.781-0.94-24.281,7.969c-4.506,8.909-0.94,19.775,7.969,24.281l51.2,25.901
			c2.62,1.325,5.397,1.952,8.144,1.952c6.602,0,12.963-3.626,16.137-9.921C101.943,182.96,98.377,172.094,89.468,167.588z"/>
	</g>
</g>
<g>
</g>
<g>
</g>
<g>
</g>
<g>
</g>
<g>
</g>
<g>
</g>
<g>
</g>
<g>
</g>
<g>
</g>
<g>
</g>
<g>
</g>
<g>
</g>
<g>
</g>
<g>
</g>
<g>
</g>
</svg>
