<?xml version="1.0" encoding="iso-8859-1"?>
<!-- Generator: Adobe Illustrator 19.0.0, SVG Export Plug-In . SVG Version: 6.00 Build 0)  -->
<svg version="1.1" id="Capa_1" xmlns="http://www.w3.org/2000/svg" xmlns:xlink="http://www.w3.org/1999/xlink" x="0px" y="0px"
	 viewBox="0 0 512 512" style="enable-background:new 0 0 512 512;" xml:space="preserve">
<g>
	<g>
		<path d="M256,150.513c-58.166,0-105.487,47.321-105.487,105.487c0,58.166,47.321,105.487,105.487,105.487
			S361.487,314.166,361.487,256C361.487,197.834,314.166,150.513,256,150.513z M256,322.894c-36.882,0-66.894-30.012-66.894-66.894
			s30.012-66.894,66.894-66.894s66.894,30.012,66.894,66.894S292.882,322.894,256,322.894z"/>
	</g>
</g>
<g>
	<g>
		<path d="M436.879,75.121c-7.538-7.539-19.747-7.539-27.285,0l-30.231,30.231c-7.539,7.532-7.539,19.753,0,27.285
			c3.769,3.769,8.703,5.654,13.643,5.654c4.933,0,9.873-1.885,13.643-5.654l30.231-30.231
			C444.417,94.874,444.417,82.653,436.879,75.121z"/>
	</g>
</g>
<g>
	<g>
		<path d="M132.638,379.362c-7.532-7.539-19.753-7.539-27.285,0l-30.231,30.231c-7.539,7.532-7.539,19.753,0,27.285
			c3.763,3.769,8.703,5.654,13.643,5.654c4.933,0,9.873-1.885,13.643-5.654l30.231-30.231
			C140.176,399.116,140.176,386.895,132.638,379.362z"/>
	</g>
</g>
<g>
	<g>
		<path d="M256,0c-10.658,0-19.297,8.638-19.297,19.297v43.095c0,10.658,8.638,19.296,19.297,19.296s19.297-8.638,19.297-19.296
			V19.297C275.297,8.638,266.658,0,256,0z"/>
	</g>
</g>
<g>
	<g>
		<path d="M256,430.312c-10.658,0-19.297,8.638-19.297,19.296v43.095c0,10.658,8.638,19.297,19.297,19.297
			s19.297-8.638,19.297-19.297v-43.095C275.297,438.95,266.658,430.312,256,430.312z"/>
	</g>
</g>
<g>
	<g>
		<path d="M132.638,105.352l-30.231-30.231c-7.532-7.539-19.753-7.539-27.285,0c-7.539,7.532-7.539,19.753,0,27.285l30.231,30.231
			c3.763,3.769,8.703,5.654,13.643,5.654c4.94,0,9.88-1.885,13.643-5.654C140.176,125.106,140.176,112.884,132.638,105.352z"/>
	</g>
</g>
<g>
	<g>
		<path d="M436.879,409.594l-30.231-30.231c-7.538-7.539-19.747-7.539-27.285,0c-7.539,7.532-7.539,19.753,0,27.285l30.231,30.231
			c3.769,3.769,8.703,5.654,13.643,5.654c4.933,0,9.873-1.885,13.643-5.654C444.417,429.347,444.417,417.126,436.879,409.594z"/>
	</g>
</g>
<g>
	<g>
		<path d="M62.392,236.703H19.297C8.638,236.703,0,245.342,0,256s8.638,19.297,19.297,19.297h43.095
			c10.658,0,19.296-8.638,19.296-19.297S73.05,236.703,62.392,236.703z"/>
	</g>
</g>
<g>
	<g>
		<path d="M492.703,236.703h-43.095c-10.658,0-19.296,8.638-19.296,19.297s8.638,19.297,19.296,19.297h43.095
			c10.658,0,19.297-8.638,19.297-19.297S503.362,236.703,492.703,236.703z"/>
	</g>
</g>
<g>
</g>
<g>
</g>
<g>
</g>
<g>
</g>
<g>
</g>
<g>
</g>
<g>
</g>
<g>
</g>
<g>
</g>
<g>
</g>
<g>
</g>
<g>
</g>
<g>
</g>
<g>
</g>
<g>
</g>
</svg>
