<?xml version="1.0" encoding="iso-8859-1"?>
<!-- Generator: Adobe Illustrator 19.0.0, SVG Export Plug-In . SVG Version: 6.00 Build 0)  -->
<svg version="1.1" id="Capa_1" xmlns="http://www.w3.org/2000/svg" xmlns:xlink="http://www.w3.org/1999/xlink" x="0px" y="0px"
	 viewBox="0 0 512 512" style="enable-background:new 0 0 512 512;" xml:space="preserve">
<g>
	<g>
		<path d="M433.493,0H78.507C59.686,0,44.373,15.312,44.373,34.133v286.72h40.96V40.96h341.333v279.893h40.96V34.133
			C467.627,15.312,452.315,0,433.493,0z"/>
	</g>
</g>
<g>
	<g>
		<path d="M256,300.373c-11.312,0-20.48,9.168-20.48,20.48V491.52c0,11.312,9.168,20.48,20.48,20.48
			c11.312,0,20.48-9.168,20.48-20.48V320.853C276.48,309.542,267.312,300.373,256,300.373z"/>
	</g>
</g>
<g>
	<g>
		<path d="M376.293,466.801l-102.4-102.4c-8.001-8.001-20.965-8.001-28.959,0c-8.001,7.994-8.001,20.965,0,28.959l102.4,102.4
			c4,4,9.236,6.001,14.479,6.001c5.243,0,10.479-2,14.479-6.001C384.294,487.765,384.294,474.795,376.293,466.801z"/>
	</g>
</g>
<g>
	<g>
		<path d="M481.28,300.373H30.72c-11.312,0-20.48,9.168-20.48,20.48c0,11.312,9.168,20.48,20.48,20.48h450.56
			c11.312,0,20.48-9.168,20.48-20.48C501.76,309.542,492.592,300.373,481.28,300.373z"/>
	</g>
</g>
<g>
	<g>
		<path d="M267.066,364.401c-8.001-8.001-20.965-8.001-28.959,0l-102.4,102.4c-8.001,7.994-8.001,20.965,0,28.959
			c3.994,4,9.236,6.001,14.479,6.001c5.243,0,10.486-2,14.479-6.001l102.4-102.4C275.067,385.365,275.067,372.395,267.066,364.401z"
			/>
	</g>
</g>
<g>
</g>
<g>
</g>
<g>
</g>
<g>
</g>
<g>
</g>
<g>
</g>
<g>
</g>
<g>
</g>
<g>
</g>
<g>
</g>
<g>
</g>
<g>
</g>
<g>
</g>
<g>
</g>
<g>
</g>
</svg>
