<?xml version="1.0" encoding="iso-8859-1"?>
<!-- Generator: Adobe Illustrator 19.0.0, SVG Export Plug-In . SVG Version: 6.00 Build 0)  -->
<svg version="1.1" id="Capa_1" xmlns="http://www.w3.org/2000/svg" xmlns:xlink="http://www.w3.org/1999/xlink" x="0px" y="0px"
	 viewBox="0 0 512 512" style="enable-background:new 0 0 512 512;" xml:space="preserve">
<g>
	<g>
		<path d="M256,0c-32.563,0-59.054,26.492-59.054,59.054s26.492,59.054,59.054,59.054s59.054-26.492,59.054-59.054S288.563,0,256,0z
			 M256,82.676c-13.246,0-23.622-10.376-23.622-23.622c0-13.027,10.594-23.622,23.622-23.622s23.622,10.594,23.622,23.622
			C279.622,72.3,269.246,82.676,256,82.676z"/>
	</g>
</g>
<g>
	<g>
		<path d="M256,84.448c-87.595,0-158.856,72.058-158.856,160.628V348.42h35.433V245.075c0-69.034,55.369-125.195,123.423-125.195
			s123.423,56.161,123.423,125.195v100.983h35.432V245.075C414.856,156.505,343.595,84.448,256,84.448z"/>
	</g>
</g>
<g>
	<g>
		<path d="M447.926,330.704H64.074c-9.785,0-17.716,7.931-17.716,17.716v81.495c0,9.785,7.931,17.716,17.716,17.716h383.852
			c9.785,0,17.716-7.931,17.716-17.716V348.42C465.642,338.635,457.711,330.704,447.926,330.704z M430.21,412.198H81.79v-46.062
			h348.42V412.198z"/>
	</g>
</g>
<g>
	<g>
		<path d="M302.653,429.915c0,26.155-20.492,46.653-46.653,46.653s-46.653-20.492-46.653-46.653h-35.432
			C173.915,475.18,210.735,512,256,512s82.085-36.82,82.085-82.085H302.653z"/>
	</g>
</g>
<g>
</g>
<g>
</g>
<g>
</g>
<g>
</g>
<g>
</g>
<g>
</g>
<g>
</g>
<g>
</g>
<g>
</g>
<g>
</g>
<g>
</g>
<g>
</g>
<g>
</g>
<g>
</g>
<g>
</g>
</svg>
