<?xml version="1.0" encoding="iso-8859-1"?>
<!-- Generator: Adobe Illustrator 19.0.0, SVG Export Plug-In . SVG Version: 6.00 Build 0)  -->
<svg version="1.1" id="Capa_1" xmlns="http://www.w3.org/2000/svg" xmlns:xlink="http://www.w3.org/1999/xlink" x="0px" y="0px"
	 viewBox="0 0 512 512" style="enable-background:new 0 0 512 512;" xml:space="preserve">
<g>
	<g>
		<path d="M374.857,67.048H137.143c-10.1,0-18.286,8.186-18.286,18.286v408.381c0,10.1,8.186,18.286,18.286,18.286h237.714
			c10.1,0,18.286-8.186,18.286-18.286V85.333C393.143,75.234,384.957,67.048,374.857,67.048z M356.571,475.429H155.429v-371.81
			h201.143V475.429z"/>
	</g>
</g>
<g>
	<g>
		<path d="M320,0H192c-10.1,0-18.286,8.186-18.286,18.286v67.048h36.571V36.571h91.429v48.762h36.571V18.286
			C338.286,8.186,330.1,0,320,0z"/>
	</g>
</g>
<g>
	<g>
		<path d="M298.667,182.857h-85.333c-10.1,0-18.286,8.186-18.286,18.286c0,10.1,8.186,18.286,18.286,18.286h85.333
			c10.1,0,18.286-8.186,18.286-18.286C316.952,191.043,308.766,182.857,298.667,182.857z"/>
	</g>
</g>
<g>
	<g>
		<path d="M256,140.19c-10.1,0-18.286,8.186-18.286,18.286v85.333c0,10.1,8.186,18.286,18.286,18.286
			c10.1,0,18.286-8.186,18.286-18.286v-85.333C274.286,148.376,266.1,140.19,256,140.19z"/>
	</g>
</g>
<g>
	<g>
		<path d="M298.667,396.19h-85.333c-10.1,0-18.286,8.186-18.286,18.286s8.186,18.286,18.286,18.286h85.333
			c10.1,0,18.286-8.186,18.286-18.286S308.766,396.19,298.667,396.19z"/>
	</g>
</g>
<g>
</g>
<g>
</g>
<g>
</g>
<g>
</g>
<g>
</g>
<g>
</g>
<g>
</g>
<g>
</g>
<g>
</g>
<g>
</g>
<g>
</g>
<g>
</g>
<g>
</g>
<g>
</g>
<g>
</g>
</svg>
