<?xml version="1.0" encoding="iso-8859-1"?>
<!-- Generator: Adobe Illustrator 19.0.0, SVG Export Plug-In . SVG Version: 6.00 Build 0)  -->
<svg version="1.1" id="Capa_1" xmlns="http://www.w3.org/2000/svg" xmlns:xlink="http://www.w3.org/1999/xlink" x="0px" y="0px"
	 viewBox="0 0 512 512" style="enable-background:new 0 0 512 512;" xml:space="preserve">
<g>
	<g>
		<path d="M424.585,118.634H18.732C8.386,118.634,0,127.02,0,137.366v237.268c0,10.346,8.386,18.732,18.732,18.732h405.854
			c10.346,0,18.732-8.386,18.732-18.732V137.366C443.317,127.02,434.932,118.634,424.585,118.634z M405.854,355.902H37.463V156.098
			h368.39V355.902z"/>
	</g>
</g>
<g>
	<g>
		<path d="M493.268,174.829h-68.683v37.463h49.951v87.415h-49.951v37.463h68.683c10.346,0,18.732-8.386,18.732-18.732V193.561
			C512,183.215,503.614,174.829,493.268,174.829z"/>
	</g>
</g>
<g>
	<g>
		<path d="M187.317,196.683c-10.346,0-18.732,8.386-18.732,18.732v74.927c0,10.346,8.386,18.732,18.732,18.732
			s18.732-8.386,18.732-18.732v-74.927C206.049,205.068,197.663,196.683,187.317,196.683z"/>
	</g>
</g>
<g>
	<g>
		<path d="M106.146,196.683c-10.346,0-18.732,8.386-18.732,18.732v74.927c0,10.346,8.386,18.732,18.732,18.732
			s18.732-8.386,18.732-18.732v-74.927C124.878,205.068,116.492,196.683,106.146,196.683z"/>
	</g>
</g>
<g>
	<g>
		<path d="M268.488,196.683c-10.346,0-18.732,8.386-18.732,18.732v74.927c0,10.346,8.386,18.732,18.732,18.732
			c10.346,0,18.732-8.386,18.732-18.732v-74.927C287.22,205.068,278.834,196.683,268.488,196.683z"/>
	</g>
</g>
<g>
</g>
<g>
</g>
<g>
</g>
<g>
</g>
<g>
</g>
<g>
</g>
<g>
</g>
<g>
</g>
<g>
</g>
<g>
</g>
<g>
</g>
<g>
</g>
<g>
</g>
<g>
</g>
<g>
</g>
</svg>
