<?xml version="1.0" encoding="iso-8859-1"?>
<!-- Generator: Adobe Illustrator 19.0.0, SVG Export Plug-In . SVG Version: 6.00 Build 0)  -->
<svg version="1.1" id="Capa_1" xmlns="http://www.w3.org/2000/svg" xmlns:xlink="http://www.w3.org/1999/xlink" x="0px" y="0px"
	 viewBox="0 0 512 512" style="enable-background:new 0 0 512 512;" xml:space="preserve">
<g>
	<g>
		
			<rect x="16.034" y="115.716" transform="matrix(0.9815 -0.1912 0.1912 0.9815 -21.2999 51.6543)" width="481.939" height="40.958"/>
	</g>
</g>
<g>
	<g>
		
			<rect x="236.529" y="130.072" transform="matrix(0.1912 -0.9815 0.9815 0.1912 -156.3327 552.3568)" width="40.951" height="481.938"/>
	</g>
</g>
<g>
	<g>
		<path d="M20.48,127.659c-11.312,0-20.48,9.168-20.48,20.48v210.944c0,11.312,9.168,20.48,20.48,20.48
			c11.312,0,20.48-9.168,20.48-20.48V148.139C40.96,136.827,31.792,127.659,20.48,127.659z"/>
	</g>
</g>
<g>
	<g>
		<path d="M491.52,21.163c-11.312,0-20.48,9.168-20.48,20.48v423.936c0,11.312,9.168,20.48,20.48,20.48s20.48-9.168,20.48-20.48
			V41.643C512,30.331,502.832,21.163,491.52,21.163z"/>
	</g>
</g>
<g>
	<g>
		<path d="M318.805,388.437v61.44H137.899V344.064h-40.96v126.293c0,11.312,9.168,20.48,20.48,20.48h221.867
			c11.312,0,20.48-9.168,20.48-20.48v-81.92H318.805z"/>
	</g>
</g>
<g>
</g>
<g>
</g>
<g>
</g>
<g>
</g>
<g>
</g>
<g>
</g>
<g>
</g>
<g>
</g>
<g>
</g>
<g>
</g>
<g>
</g>
<g>
</g>
<g>
</g>
<g>
</g>
<g>
</g>
</svg>
